<?xml version="1.0" encoding="utf-8"?>
<!-- Generator: Adobe Illustrator 26.5.0, SVG Export Plug-In . SVG Version: 6.00 Build 0)  -->
<svg version="1.1" id="Layer_1" xmlns="http://www.w3.org/2000/svg" xmlns:xlink="http://www.w3.org/1999/xlink" x="0px" y="0px"
	 viewBox="0 0 1024 1024" style="enable-background:new 0 0 1024 1024;" xml:space="preserve">
<style type="text/css">
	.st0{fill:#C785A2;}
	.st1{fill:#A36C76;}
</style>
<g>
	<g>
		<g>
			<path class="st0" d="M443.2,624.4c0,80.4-24,76.1-24,145.7s0,57.2,0,165.9s-52.1,66.6-143.6,66.6c-91.2,0-94.2-9.4-187,0.5
				c-70.2,7.6-71.2-58.8-71.2-246.9c0-168.6,5.9-288.5,53.7-368.9c113.6-190.5,187-219.6,232.6-219.6s100.1,45.6,100.1,130.6
				c0,84.7,0,45.6,0,117.4c0,18.1,2.4,35.3,6.2,52.3c-29.7,26.2-59.9,31.8-95.5,31.8c-6.7,0-13.5-0.3-20-0.3
				c-6.5-0.3-13-0.3-19.2-0.3c-7.6,0-12.1-2.4-15.1-8.4c-7.6-14.3-3.5-43.7,8.1-60.7c16.2-23.5,50.5-27.3,50.7-27.3
				c8.1-0.8,14.8-7.3,15.7-15.4c0.8-8.1-4.3-15.9-12.1-18.1c-1.1-0.3-26.4-7.8-51.8-7.8c-29.4,0-44.3,10.3-51.8,20.8
				c-7.8-10.5-17.8-35.3-15.1-51.3c1.1-6.7,1.9-16.5-4.3-23.7c-3.5-4.3-8.9-6.7-14.3-6.7s-13,2.2-19.4,12.4
				c-11.1,17-24,66.1,4.9,130.1c3.2,7,5.4,12.7,7,17.5c-5.1-5.1-10.5-11.3-14.3-17.8c-6.5-11.1-14.6-16.7-23.7-16.7
				c-8.4,0-19.2,5.4-22.1,20.8c-4.6,23.7,10.5,67.7,57.2,87.2c-15.9,4.6-39.1,8.6-48.8,10.5c-3.5,0.5-7,1.1-9.7,1.6
				c-16.5,3-21.3,14.6-20.5,23.5c2.2,22.9,41,33.7,66.6,33.7c19.2,0,46.4-4.9,67.7-28.6c17.3-19.2,25.1-20.2,26.4-20.2
				c2.4,0,6.2,4.3,9.2,7.8c1.9,2.2,3.8,4.3,5.9,6.5c0.3,7.3-7.3,28.3-25.4,50.7c-8.4,10.5-23.2,12.7-34,12.7s-19.4-2.2-19.4-2.2
				c-1.3-0.3-3-0.5-4.3-0.5c-7.3,0-14,4.6-16.5,11.6c-3,8.6,1.3,18.1,9.7,21.3c2.2,0.8,14.8,5.9,29.7,9.7c-14,8.6-30,16.5-42.1,17.8
				c-25.1,2.4-59.9,16.5-58.8,39.9c0.8,16.2,15.7,24.6,44.3,24.6c7,0,14.8-0.3,23.7-1.3c28.9-2.7,49.9-9.2,65-17
				c-4,16.7-11.1,31.6-22.4,35.6c-16.5,5.9-35.1,7.3-53.4,8.9c-26.4,1.9-51.5,3.8-67.5,20.5c-8.4,8.6-10.8,17.3-7.3,25.6
				c1.9,4.6,7.3,12.1,21.6,12.1c6.2,0,14.3-1.1,25.6-2.7c17.8-2.7,42.1-6.2,69.1-6.2c4.6,0,9.2,0,13.5,0.3
				c-13,14.8-48.3,41.8-85.5,64.2c-6.7,4-9.7,12.1-7.6,19.7c2.2,7.3,8.9,12.1,16.5,12.1c0.3,0,0.5,0,0.8,0
				c9.2-0.5,91.7-5.4,122.5-46.4c3.5-4.9,7.3-7.6,10-7.6c1.9,0,4.6,1.6,6.7,4.6c4,5.1,7.8,15.7,4.9,28.1c-1.6,6.5-3.2,16.2,3,24
				c3.5,4.6,9.2,7.3,15.1,7.3c14.8,0,25.6-16.7,32.1-30.8c6.7-14.3,25.6-64.2-10.5-107.7c-32.7-39.1-25.6-60.4-10.5-107.7
				c3.8-11.6,8.1-24.8,11.9-39.4c14.8-55.6,65-72.9,98.2-84.2c1.9-0.8,3.8-1.3,5.4-1.9C440.2,582.9,443.2,602.8,443.2,624.4z"/>
			<path class="st0" d="M1006.6,808.7v89c0,71.8-6.5,95.8-115.2,95.8c-108.7,0-128.2-5.1-170.5-4c-51,1.1-82.8-21.9-83.1-57.2
				c-0.3-29.1-3.5-48.8-3-90.4c1.3-85-2.7-74.5-18.9-156.8c-12.7-64-18.3-95.3-18.3-124.1c0.8,0.3,1.3,0.5,2.2,0.8
				c2.7,1.1,5.9,2.2,9.2,3.2c33.2,11.9,83.6,29.7,98.8,86.9c3.8,14.6,8.1,27.8,11.9,39.4c15.1,47.2,22.1,68.5-10.5,107.7
				c-36.2,43.4-17.3,93.4-10.5,107.7c6.5,14,17.5,30.8,32.1,30.8c5.9,0,11.3-2.7,15.1-7.3c6.2-7.8,4.6-17.5,3-24
				c-3-12.4,0.5-22.9,4.9-28.1c2.2-2.7,4.6-4.6,6.7-4.6c2.7,0,6.5,2.7,10,7.6c31,40.7,113.3,45.9,122.5,46.4c0.3,0,0.5,0,0.8,0
				c7.6,0,14.3-4.9,16.5-12.1c2.4-7.6-0.8-15.7-7.6-19.7c-37.2-22.4-72.6-49.4-85.5-64.2c4.6-0.3,9.2-0.3,13.8-0.3
				c27,0,51.3,3.5,69.1,6.2c11.3,1.6,19.4,2.7,25.6,2.7c14.3,0,19.7-7.6,21.6-12.1c3.5-8.4,1.1-17-7.3-25.6
				c-15.9-16.5-41-18.3-67.5-20.5c-18.1-1.3-37-2.7-53.4-8.9c-11.3-4-18.3-18.9-22.4-35.6c15.1,7.8,36.2,14.3,65,17
				c8.9,0.8,16.7,1.1,23.7,1.1c28.6,0,43.4-8.4,44.3-24.6c1.1-23.2-33.7-37.2-58.8-39.9c-12.1-1.1-28.1-9.2-42.1-17.8
				c14.8-3.8,27.5-8.9,29.7-9.7c8.4-3.5,12.7-12.7,9.7-21.3c-2.4-7.3-9.2-11.9-16.5-11.9c-1.3,0-2.7,0.3-4.3,0.5
				c0,0-8.6,2.2-19.4,2.2s-25.6-2.2-34-12.7c-18.1-22.7-25.6-43.7-25.6-50.7c2.2-2.2,4-4.3,5.9-6.5c3-3.5,6.7-7.8,9.2-7.8
				c1.3,0,9.2,1.1,26.7,20.2c21.3,23.7,48.8,28.6,67.7,28.6c25.6,0,64.8-10.8,66.6-33.7c0.8-8.9-4-20.2-20.5-23.5
				c-2.7-0.5-5.9-1.1-9.7-1.6c-9.7-1.6-32.9-5.9-48.8-10.5c46.7-19.4,61.8-63.1,57.2-87.2c-3-15.4-13.8-20.8-22.1-20.8
				c-9.2,0-17.3,5.7-23.7,16.7c-3.8,6.5-9.2,12.7-14.3,17.8c1.6-4.6,4-10.5,7-17.5c28.9-64,15.9-113.1,4.9-130.1
				c-6.5-10.3-14.3-12.4-19.4-12.4c-5.4,0-10.8,2.4-14.3,6.7c-6.2,7.3-5.4,17-4.3,23.7c2.7,15.9-7.3,40.7-15.1,51.3
				c-7.6-10.5-22.4-20.8-51.8-20.8c-25.4,0-50.7,7.6-51.8,7.8c-7.8,2.4-13,10-12.1,18.1c0.8,8.1,7.3,14.8,15.7,15.4
				c0.3,0,34.8,3.8,50.7,27.3c11.6,17,15.7,46.7,8.1,60.7c-3,5.9-7.6,8.4-15.1,8.4c-5.4,0-10.8,0-16.5,0.3c-5.4,0-11.1,0.3-16.7,0.3
				c-33.7,0-69.9-3-107.1-40.2c-4.6-4.6-8.6-10-12.1-16.5l0,0c0.8-10.3,1.3-22.9,1.9-41.8c5.4-154.3,32.7-234.8,110.9-234.8
				S873.3,193,968.6,401.8C1005.3,483,1006.6,680.6,1006.6,808.7z"/>
		</g>
		<path class="st1" d="M480.4,13.2c0,255.8,2.2,406.9-50.7,459.8s-108.5,43.2-154.6,43.2s-42.4-65.3-21-96.1s63.4-34.5,63.4-34.5
			s-71.2-21-86.6,9.7s-49.9-32.7-44.3-67.5c5.7-34.5-39.7,21-0.5,107.7s-18.6,48-37.8,15.4s-28.9,42.1,34.5,67.2
			c63.4,25.1-32.7,38.6-63.4,44.3c-30.8,5.7,54.2,48.6,98.2,0c44-48.6,55.9-15.4,67.5-5.7c11.6,9.7-1.9,44.3-25.1,73.1
			s-71.2,16.5-71.2,16.5s44.3,18.3,63.4,11.6c19.2-6.7-42.4,45.3-80.7,49.1c-38.3,3.8-76.9,36.4,5.7,28.9c82.6-7.6,88.5-48,88.5-48
			s3.8,84.7-38.6,100.1c-42.4,15.4-93.9,3.8-114.4,25.1c-20.2,21,39.4-3.8,112.3,0c72.9,3.8-78.8,96.1-78.8,96.1s82.8-4,109.6-39.4
			c27-35.6,61.5,1.1,51.8,39.4c-9.7,38.6,57.7-42.4,9.7-100.1c-48-57.7-21-90.4-1.9-162.4s89.9-88.5,120.6-100.1
			c30.8-11.6,69.3-28.9,84.7-46.1c15.4,17.3,54,34.5,84.7,46.1c30.8,11.6,99.3,29.7,118.5,102c19.2,72,46.1,105-1.9,162.4
			c-48,57.7,19.2,138.4,9.7,100.1c-9.4-38.3,25.1-75,51.8-39.4S893,911,893,911s-151.9-92.3-78.8-96.1c73.1-3.8,132.8,21,112.3,0
			c-20.2-21-72-9.7-114.4-25.1c-42.4-15.4-38.6-100.1-38.6-100.1s5.7,40.5,88.5,48c82.8,7.8,44.3-25.1,5.7-28.9
			c-38.6-3.8-100.1-55.9-80.7-49.1c19.2,6.7,63.4-11.6,63.4-11.6s-48,12.4-71.2-16.5c-23.2-28.9-36.4-63.4-25.1-73.1
			c11.6-9.7,23.5-42.9,67.5,5.7c44,48.6,129,5.7,98.2,0c-30.8-5.7-127.1-19.2-63.4-44.3c63.7-25.1,54-99.8,34.5-67.2
			c-19.2,32.7-76.9,71.2-37.8-15.4c39.1-86.6-6.5-142.5-0.5-107.7s-28.9,98.2-44.3,67.5c-15.4-30.8-86.6-9.7-86.6-9.7
			s42.4,3.8,63.4,34.5c21,30.8,25.1,96.1-21,96.1c-46.1,0-99.6,8.1-152.5-44.8c-52.9-52.9-50.7-203.7-50.7-459.8h-80.4V13.2z"/>
	</g>
</g>
</svg>
