<?xml version="1.0" encoding="utf-8"?>
<!-- Generator: Adobe Illustrator 26.0.2, SVG Export Plug-In . SVG Version: 6.00 Build 0)  -->
<svg version="1.1"
	 id="svg3087" xmlns:cc="http://creativecommons.org/ns#" xmlns:dc="http://purl.org/dc/elements/1.1/" xmlns:inkscape="http://www.inkscape.org/namespaces/inkscape" xmlns:rdf="http://www.w3.org/1999/02/22-rdf-syntax-ns#" xmlns:sodipodi="http://sodipodi.sourceforge.net/DTD/sodipodi-0.dtd" xmlns:svg="http://www.w3.org/2000/svg"
	 xmlns="http://www.w3.org/2000/svg" xmlns:xlink="http://www.w3.org/1999/xlink" x="0px" y="0px" viewBox="0 0 155.9 164"
	 style="enable-background:new 0 0 155.9 164;" xml:space="preserve">
<style type="text/css">
	.st0{fill:#BF2F38;}
</style>
<sodipodi:namedview  bordercolor="#666666" borderopacity="1.0" gridtolerance="10.0" guidetolerance="10.0" id="base" inkscape:current-layer="g3096" inkscape:cx="271" inkscape:cy="13.187649" inkscape:pageopacity="0.0" inkscape:pageshadow="2" inkscape:window-height="696" inkscape:window-width="1024" inkscape:window-x="-4" inkscape:window-y="-4" inkscape:zoom="1.00369" objecttolerance="10.0" pagecolor="#ffffff" showgrid="false">
	</sodipodi:namedview>
<defs>
	
		<inkscape:perspective  id="perspective3601" inkscape:persp3d-origin="271 : 54.666667 : 1" inkscape:vp_x="0 : 82 : 1" inkscape:vp_y="0 : 1000 : 0" inkscape:vp_z="542 : 82 : 1" sodipodi:type="inkscape:persp3d">
		</inkscape:perspective>
</defs>
<g id="g3091" transform="translate(-16.9375,-333.76838)">
	<g id="g3096">
		<g id="g4202">
			<g id="g3122" transform="translate(17.933824,-296.90442)">
				<path id="path3124" class="st0" d="M103,705.2c-0.1-5.4-1.9-16.4-14.8-22.7c13.1,4.2,19.4,15.2,20,23.5
					c13.8,2.7,26,9.2,45.8,2.4l0.1,0c0,0-26.1,0.2-37-7.6c5.6,0.2,12.1-1.1,14.2-4.2c2.3-3.4,2.5-6.9,8.1-7.1
					c3.1-0.1,13.8,0.7,14.9-14.9c-3.4,5.7-7.1,8.1-12.6,6.7c-3.5-0.9-10-3.6-14.7,1.9c-3.8,4.6-7.9,6.9-14.5,6.2
					c2.6-3.5,41.7-54.3,41.7-54.3s-50,40.2-52.8,42.5c-0.5-7.3,1.7-10,4.6-13.2c2.4-2.6,6.6-6.2,3.3-13.7c-2.7-6.1-2.3-9.8,5-15.6
					c-5.8,0.4-14.8,4.4-13.7,15.1c0.6,6.5-4,7-5.6,8c-4.4,2.4-4.9,9.4-5.1,14.9c-0.5-1.8-6.8-29-9.1-37.8c0,0,0,73.3,0,73.3H81
					C89.5,705,96.5,704.5,103,705.2"/>
			</g>
			<g id="g3174" transform="translate(17.933824,-296.90442)">
				<path id="path3176" class="st0" d="M53.9,674.7c-0.6-3-0.3-9.1,2.7-15c-11,8.3-11.1,15-11.1,15S47.6,673.1,53.9,674.7z
					 M48.8,656.6c0,0-13.3,1.9-17.1,2.3c-2.6,1.6-5.7,5.9-5.7,5.9s-3.1,0.5-9.4,1.6c-4.3,2.8-6.9,9.4-1.6,14.8
					c-1.7-0.4-1.7-0.4-4.2-0.8c-5.3,3.4-2.8,9.7,8.2,7.5c-3.1-0.1-4.7-1.6-4.6-3.6c-0.1-2.2,4.1-4.9,9.3-3.5
					c-4.9-9.2,0.5-12.9,0.5-12.9s-2.9,7.6,3.4,13.9c0.6-0.9,2.4-3.5,7.7-3.6c5.3-0.1,8.6,2.5,8.6,5.5c0.1,2.6-3.3,5.4-7.6,5.4
					l-0.1-6.3c0,0-1.4,0.5-1.8,1.1c0,0.3,0,5.3,0,5.3c-1.7,0-5.2-0.7-7-3.6c-1.4-0.1-9.3-1.3-9.3-1.3l0.4,2.1c0,0,2.8,0.5,3.3,3.2
					c0.6,3.3,2.6,6.4,4.2,7.7c3.3-0.4,8.7-4.5,18.8-4.4c-9.2,1.3-18.6,11.1-32,7.4c21.4,7.3,23.6-8.9,50.4-3.8
					c-4.2-2.5-10.4-3.3-10.4-3.3s3.3-3.6,3.5-9.1c0.4,0,1-0.1,2.1-0.2c0.4-1.8,0.6-3.6,0.6-3.6s-5.8,0-10.7,0
					C36.4,667.9,48.8,656.6,48.8,656.6z M19,656.4c3.4,0.2,7.5-1.9,7.7-2.1c0,0-1.4,3.6,1.8,3.4c3.5-0.2,7.4-2,8-2.3v-4.6
					c-0.3,0.2-3.7,2.6-7.5,3.5c-1.4,0.3-0.9-0.9-0.8-1.6c0.1-0.7,0.2-1.3-2.3-0.2c-10.2,4.2-10.8,1.3-10.8,1
					C14.7,653.8,14.9,656.1,19,656.4z M73.2,635c0,0,0,72.2,0,73.3c-29.5-11.6-41.8,10.9-73.2,0c0,0.3,0-73.3,0-73.3h14.9v7.9h8.6
					V635h8.4v7.9h8.5l0-7.9h8.5v7.9h9.2V635H73.2"/>
			</g>
			<g id="g3178" transform="translate(17.933824,-296.90442)">
				<path id="path3180" class="st0" d="M101.4,734.8c0,0-0.3-0.2,0.3-0.7c0.1-0.1,0.2,0.1,0.6,0.1c0.5,0,0.8-0.2,1.2-0.7
					c0.7-0.8-0.7-1.1-1.2-0.7c-0.5,0.4-0.8,0.8-1.2,1.2C101.1,734,100.4,734.6,101.4,734.8z M126.6,771.8c-1.2,1-4.8,2.8-5.7,3.2
					c-0.9,0.4-1.2,0.7-1.9,2c-0.8,1.6-1.6,4.5-1.4,4.7c2.2-0.4,3.8-2.2,3.8-2.2s0-0.5-0.5-1.2c-0.4-0.6,0.4-1.3,0.9-0.9
					c0.4,0.3,0.9,0.4,1.2,0.1c0.3-0.3,7.3-4.7,7.6-5.2c-1.4-1.4-2.5-2.8-2.5-2.8S127.8,770.9,126.6,771.8z M99.4,752.4
					c-3-1.2-3.6-2-4.2-2.2c-0.5-0.2-2.5,0.7-2.9,1.5c-0.9,2.4-3,6.2-3.3,6.8c-0.2,0.3-0.3,0.6-0.3,1c0,0.4,0.2,1.9,0.1,2.3
					c0,0.4,0,0.8,0.2,1.2c0.1,0.4,0.3,1.9,1.1,3.4c1.7-1.7,2-4.3,1.9-3.8c0,0,0.6-0.9-0.8-1.4c-0.4-0.1-0.3-1.1,0.1-1.3
					c0.5-0.2,0.8-0.3,1-1.2c0.2-0.9,1.2-4.2,1.5-4.9c0-0.1,0.1-0.3,0.3-0.3c0.3-0.1,0.6-0.2,0.8-0.3c0.1,0,0.4,0.1,0.5,0.2
					c0.5,0.5,2.9,2.5,2.9,2.5s1.1-0.1,1.8-0.4C99.7,754.9,99.5,753.2,99.4,752.4z M96.4,738.4c0,0-1,1.3,0.1,1.6
					c0,0.4,0.2,1.1,0.3,1.5c0.2,0.5,0.5,0.3,0.9-0.1c0.4-0.4,1-1.2,1.4-1.7c0.4-0.4,1.8-0.3,1.2,0.6c-0.4,0.6-0.7,0.7-1.1,0.8
					c-0.4,0.1-0.5-0.2-0.9,0.3c-0.4,0.6-0.9,1-0.1,1c0.4,0,1.2,0.4,1.7,0.3c0.5-0.1,0.5-0.4,0.6-0.8c0.1-0.4,0-0.7,0.5-1
					c0.6-0.4,1.6-1.2,1.9-1.5c0.3-0.3,0.7-0.3,1.2-0.3c0.4,0,2.5,0.2,3.7-1.6c0.9-1.3,1-3.1,0.6-4.6c0.6,0.6,1.4,2.4,1,4.1
					c-0.7,3.1-2.2,3.2-3.8,3.6c-0.6,0.9-2.3,3.2-3.1,7.4c-0.4,0.2-3.5,3.2-0.9,8.1c-0.7,0.2-2.6,1.1-3.8,1.3
					c-0.8,0.2-1.4,0.2-1.7,0.6c-0.4,0.4-1.2,1.8-0.7,2.5c0.3,0.5,2.2,4.8,2.4,6.1c0.2,1.3,0.6,1.6,1.1,2.1c0.5,0.5,0.9,0.5,1.6,1
					c0.8,0.6,1.4,1.6,2.1,2.1c0.7,0.6,1.6,0.9,2.2,0.8c-0.1-2.2-0.6-4.3-1.3-5c-0.7-0.7-1.6,0.3-1.8,0.4c-0.2,0.1-0.5-0.2-0.6-0.7
					c-0.1-0.6,0.4-1.1-0.1-1.9c-1-1.5-1.9-3.1-2-3.4c-0.7-1.4,0.5-1.7,0.8-1.6c0.7,0.2,4.8,0.7,5.5,0.8c0.6,0.1,1,0.2,1.3-0.2
					c0.9-1,1.4-1.7,1.9-2.7c0.9,0.7,0.3,2,0,3.6c0.3,0.2,6.3,3.3,14.5,1.1c3.4-0.9,3.1-0.2,3.4,0.4c2,3.9,3.4,5.4,5.8,7.3
					c0.7,0.6,1.2,1.5,1.5,2c0.3,0.5,0.4,1.5,0.1,2.1c-0.3,0.8-2.2,4.1-2.5,4.5c-0.6,0.9-1.4,1.6-2.1,2c-2.1,1.1-2.6,2.1-2.8,2.9
					c0.5,0,5.4,0,5.4,0s0.1-0.3,0.1-0.9c-0.1-0.9,0.8-1.1,1-1.2c0.3-0.1,0.7,0.2,1.2-0.8c0.8-1.9,3.9-7.2,4.2-7.7
					c0.3-0.5,1.2-1.8,0.3-2.3c-1.8-1.1-2.9-2.8-3.2-4.8c-0.1-0.8-0.1-2.1,1.7-4.2c3.8-4.7,1-14.3-7.4-14.1
					c-4.7,0.1-7.4-0.3-10.5-0.9c-1.1-0.2-1.3-0.8-1.1-1.5c0.2-0.7,0.5-2.1,0.5-2.7c-0.8-0.7-2.1-1.2-2.7-1.4c-0.6-0.2-1-0.7-0.3-0.8
					c0.7,0,3.1,0.2,3.1,0.2s0.1-1.3-0.3-3.3c-1.1-0.5-2.4-0.9-3.8-1c-0.4,0-0.7-0.5,0.2-0.6c1.2-0.2,2.4,0,3.3,0
					c0.1-0.1-0.4-2.6-1.3-3.6c-0.6-0.2-0.9-0.3-3.1-0.5c-0.7-0.1-0.8-0.3-0.3-0.5c0.6-0.2,1.5-0.4,2.7-0.3c-0.5-0.6-3.5-6.3-9.9-4.6
					c0.7,0.9,1.1,1.3,1.3,1.9c0.2,0.5-0.4,0.7-0.9,0.2c-2-2.1-3.1-2.1-4.4-2.3c0.9,0.8,1.2,1.6,1.5,2.5c-1.5,1-3.5,3.5-3.8,4
					c-0.6,0.9,0.2,1.4,0.2,1.4L96.4,738.4z M137.7,724.2c-6.5,2.3-5.6,9.3-3.8,12c2.3,3.5,4.2,3.6,5.7,7.8c1.1,3.2-0.9,4.9-2.9,5.7
					c3.5,2.1,7-0.1,8.3-2.2c2.3-3.1-0.3-7.2,2.2-9.3c0.7-0.6,1.8-1,3.3-1c-1.5-2.2-5.1-1.9-6.5,0.1c-1-2.3-3.8-4.4-2.8-8
					c0.7-2.4,4.4-3.3,5.8-1.3c0.8,1.1,0.9,3.2-1.4,4.2c1.4-0.1,4.1-2.6,2.3-5.9c-1.3-2.3-3.5-2.5-5.2-2.5c-3.2,0-8.6,3.7-5.2,11.6
					C135.5,733.6,132.3,727.5,137.7,724.2z M154,715.9c0-1.2,0,73.4,0,73.4c-40.6,9.9-41.8-11.7-73.2,0c0,1,0-73.4,0-73.4
					C109.7,703.8,121,726.8,154,715.9"/>
			</g>
			<g id="g3182" transform="translate(17.933824,-296.90442)">
				<path id="path3184" class="st0" d="M26.6,757.8c0,0-1.3,0.8,0.3,4.4c1.6,3.5,3.6,6.8,0.1,10.7c2,0,6.3-2.6,1.7-10.3
					C27.7,760.7,26.6,759.5,26.6,757.8z M22.3,759.5c1.1-0.1,1.2-1.4,1-2.1c-0.2-0.8-1.6-0.9-1.9,0.1c-0.3,1,0,2,0,2
					c0.3,1,1.4,1.3,1.5,1.2C22.2,760.1,22.4,759.8,22.3,759.5z M23.3,764.1c-0.3,3.1-2,3.6-2,3.6c-3.1-1.4-4.8,2.5-2.2,3.6
					c3.3,1.5,5.3-2.8,5.5-3.6c0.6-2.2,0.6-3.8,0.4-7.5c-0.2-3.1,0.6-3.6,1.1-3.7c0.5-0.1,1.6-0.1,2.6,3.1c1.1,3.2,3.4,3.7,3.4,3.7
					s-3.3-5.4,1.3-10.4c2.2-2.3,6.5-3.6,5.7-6.9c0,0-0.7,1.2-2,1.5c-1.3,0.3-3.9,0.7-3.9,0.7s6.1-2.9,7.2-6.2c0,0,1.9,3.2-0.6,7.9
					c0,0,2.4-0.9,5.1,0.3c6.7,3,6,12.5-2.5,14.8c-12,3.2-7.7,12.5-0.8,13.1c-0.7-0.5-0.9-3.3,0.3-4.9c0.6-0.5,1.7-1.6,2.4,0.7
					c1.2,4,4.7,4.4,6.4,3.9c-0.4-0.4-1.2-1.6-1.1-2.3c0.2-1.4,2,0.1,2.6,0.2c4.7,1.3,7.3,0.2,7.5-0.5c-1.1-0.2-0.9-0.1-1.5-0.3
					c-0.6-0.2-1.8-1,0.4-1.5c4.2-1,6.5-5.3,3.7-8.6c-2.6-3.2-5.9-2.7-7-2.3c4.5,1,4.8,4.6,2.5,6.5c-2,1.5-7,2.1-8.7-1.2
					c-1.1,0.8-1.5,2-1.3,3.6c-0.5-0.2-2.4-2.9,0.5-5.1c13.1-8.4,11-22.6-0.1-28.5l-0.1-0.1c-10.1-5.8-18.9-0.5-18.9-0.5
					c6.2-6.2,17-2.5,18.5-1.8c0,0-1.2-1.1-1.9-2.1c-0.9-1.3-0.8-2.5-0.8-2.5c-4.3,2.4-5.4-1.3-5.4-1.3s-3.7,3.3-6.1,0.6
					c-2.1-2.4,1.3-5.6,1.3-5.6c-21.6,7.1-17.5,19.3-17.5,19.3s-3.1,2.9-3.8,9.8c-0.8,7.9,3.1,13.5,8,11.9
					C22.5,765.3,23.1,764.8,23.3,764.1L23.3,764.1z M73.2,715.9c0,0,0,74.4,0,73.4c-31.4-11.7-32.6,9.9-73.2,0c0,0,0-74.6,0-73.4
					C33,726.8,44.3,703.8,73.2,715.9"/>
			</g>
		</g>
	</g>
</g>
</svg>
