<?xml version="1.0" encoding="utf-8"?>
<!-- Generator: Adobe Illustrator 27.1.1, SVG Export Plug-In . SVG Version: 6.00 Build 0)  -->
<svg version="1.1" id="Layer_1" xmlns="http://www.w3.org/2000/svg" xmlns:xlink="http://www.w3.org/1999/xlink" x="0px" y="0px"
	 viewBox="0 0 1717.4 497.5" style="enable-background:new 0 0 1717.4 497.5;" xml:space="preserve">
<style type="text/css">
	.st0{enable-background:new    ;}
	.st1{fill:none;stroke:#000000;stroke-width:5;stroke-miterlimit:10;}
	.st2{fill:#C785A2;}
	.st3{fill:#A36C76;}
</style>
<g>
	<path d="M-497.5-61.2c0,14-4.2,13.2-4.2,25.4c0,12.1,0,10,0,28.9s-9.1,11.6-25,11.6c-15.9,0-16.4-1.6-32.6,0.1
		c-12.2,1.3-12.4-10.2-12.4-43c0-29.3,1-50.2,9.4-64.2c19.8-33.2,32.6-38.2,40.5-38.2c8,0,17.4,8,17.4,22.7c0,14.8,0,7.9,0,20.4
		c0,3.2,0.4,6.1,1.1,9.1c-5.2,4.5-10.4,5.5-16.6,5.5c-1.2,0-2.3,0-3.5-0.1c-1.1,0-2.3-0.1-3.3-0.1c-1.3,0-2.1-0.4-2.6-1.5
		c-1.3-2.5-0.6-7.6,1.4-10.6c2.8-4.1,8.8-4.7,8.8-4.7c1.4-0.1,2.6-1.3,2.7-2.7c0.1-1.4-0.8-2.8-2.1-3.2c-0.2-0.1-4.6-1.4-9-1.4
		c-5.1,0-7.7,1.8-9,3.6c-1.4-1.8-3.1-6.2-2.6-8.9c0.2-1.2,0.3-2.9-0.8-4.1c-0.6-0.7-1.5-1.2-2.5-1.2c-0.9,0-2.2,0.4-3.4,2.2
		c-1.9,3-4.2,11.5,0.9,22.6c0.5,1.2,0.9,2.2,1.2,3c-0.9-0.9-1.8-2-2.5-3.1c-1.1-1.9-2.5-2.9-4.1-2.9c-1.5,0-3.3,1-3.9,3.6
		c-0.8,4.1,1.9,11.8,10,15.1c-2.8,0.8-6.8,1.5-8.5,1.8c-0.6,0.1-1.2,0.2-1.7,0.3c-2.9,0.5-3.7,2.5-3.6,4.1c0.4,4,7.1,5.9,11.6,5.9
		c3.3,0,8.1-0.9,11.8-5c3-3.3,4.4-3.5,4.6-3.5c0.4,0,1.1,0.8,1.6,1.4c0.3,0.4,0.7,0.8,1,1.1c0,1.2-1.3,4.9-4.4,8.9
		c-1.5,1.8-4,2.2-5.9,2.2s-3.4-0.4-3.4-0.4c-0.2-0.1-0.5-0.1-0.8-0.1c-1.3,0-2.4,0.8-2.9,2c-0.5,1.5,0.2,3.1,1.7,3.7
		c0.4,0.1,2.6,1,5.2,1.7c-2.4,1.5-5.2,2.9-7.3,3.1c-4.4,0.4-10.5,2.9-10.2,6.9c0.1,2.8,2.7,4.3,7.7,4.3c1.2,0,2.6-0.1,4.1-0.2
		c5-0.5,8.7-1.6,11.3-3c-0.7,2.9-1.9,5.5-3.9,6.2c-2.9,1-6.1,1.3-9.3,1.5c-4.6,0.3-9,0.7-11.8,3.6c-1.5,1.5-1.9,3-1.3,4.5
		c0.3,0.8,1.3,2.1,3.8,2.1c1.1,0,2.5-0.2,4.5-0.5c3.1-0.5,7.3-1.1,12-1.1c0.8,0,1.6,0,2.4,0.1c-2.3,2.6-8.4,7.3-14.9,11.2
		c-1.2,0.7-1.7,2.1-1.3,3.4s1.6,2.1,2.9,2.1h0.1c1.6-0.1,16-1,21.3-8.1c0.6-0.8,1.3-1.3,1.8-1.3c0.3,0,0.8,0.3,1.2,0.8
		c0.7,0.9,1.4,2.7,0.8,4.9c-0.3,1.2-0.5,2.8,0.5,4.2c0.6,0.8,1.6,1.3,2.6,1.3c2.6,0,4.5-2.9,5.6-5.3c1.2-2.5,4.5-11.2-1.8-18.7
		c-5.7-6.8-4.5-10.5-1.8-18.7c0.6-2,1.4-4.3,2.1-6.9c2.6-9.7,11.3-12.7,17.1-14.7c0.3-0.1,0.7-0.2,1-0.3
		C-498-68.4-497.5-64.9-497.5-61.2z"/>
	<path d="M-498.7-71.6c-0.3,0.1-0.6,0.2-1,0.3c-5.8,2-14.5,5-17.1,14.7c-0.7,2.5-1.4,4.8-2.1,6.9c-2.7,8.2-3.9,12,1.8,18.7
		c6.3,7.6,3,16.2,1.8,18.7c-1.1,2.4-3,5.3-5.6,5.3c-1,0-2-0.5-2.6-1.3c-1.1-1.4-0.8-3-0.5-4.2c0.5-2.1-0.1-4-0.8-4.9
		c-0.4-0.5-0.8-0.8-1.2-0.8c-0.5,0-1.1,0.5-1.8,1.3c-5.4,7.1-19.7,8-21.3,8.1h-0.1c-1.3,0-2.5-0.9-2.9-2.1c-0.4-1.3,0.1-2.7,1.3-3.4
		c6.5-3.9,12.6-8.6,14.9-11.2c-0.8,0-1.6-0.1-2.4-0.1c-4.7,0-8.9,0.6-12,1.1c-2,0.3-3.4,0.5-4.5,0.5c-2.5,0-3.4-1.3-3.8-2.1
		c-0.6-1.4-0.2-2.9,1.3-4.5c2.8-2.9,7.1-3.2,11.8-3.6c3.2-0.2,6.4-0.5,9.3-1.5c2-0.7,3.2-3.3,3.9-6.2c-2.6,1.4-6.3,2.5-11.3,3
		c-1.5,0.2-2.9,0.2-4.1,0.2c-5,0-7.5-1.4-7.7-4.3c-0.2-4,5.9-6.5,10.2-6.9c2.1-0.2,4.9-1.6,7.3-3.1c-2.6-0.7-4.8-1.6-5.2-1.7
		c-1.5-0.6-2.2-2.2-1.7-3.7c0.4-1.2,1.6-2,2.9-2c0.2,0,0.5,0,0.8,0.1c0,0,1.5,0.4,3.4,0.4s4.5-0.4,5.9-2.2c3.1-3.9,4.5-7.6,4.4-8.9
		c-0.4-0.4-0.7-0.7-1-1.1c-0.5-0.6-1.2-1.4-1.6-1.4c-0.2,0-1.6,0.2-4.6,3.5c-3.7,4.1-8.5,5-11.8,5c-4.5,0-11.2-1.9-11.6-5.9
		c-0.2-1.5,0.7-3.5,3.6-4.1c0.5-0.1,1.1-0.2,1.7-0.3c1.7-0.3,5.7-1,8.5-1.8c-8.1-3.4-10.8-11-10-15.1c0.5-2.7,2.4-3.6,3.9-3.6
		c1.6,0,3,1,4.1,2.9c0.7,1.1,1.6,2.2,2.5,3.1c-0.3-0.8-0.7-1.8-1.2-3c-5-11.1-2.8-19.7-0.9-22.6c1.2-1.8,2.5-2.2,3.4-2.2
		c1,0,1.9,0.4,2.5,1.2c1.1,1.3,1,3,0.8,4.1c-0.5,2.8,1.3,7.1,2.6,8.9c1.3-1.8,3.9-3.6,9-3.6c4.4,0,8.8,1.3,9,1.4
		c1.4,0.4,2.3,1.7,2.1,3.2c-0.1,1.4-1.3,2.6-2.7,2.7c0,0-6,0.6-8.8,4.7c-2,3-2.7,8.1-1.4,10.6c0.5,1,1.3,1.5,2.6,1.5
		c1.1,0,2.2,0,3.3,0.1c1.1,0,2.3,0.1,3.5,0.1c6.2,0,11.5-1,16.6-5.5c0.2,1.1,0.5,2.2,0.8,3.2c1,3.5,2.1,7,3,10.6
		C-499.2-73.6-499-72.6-498.7-71.6z"/>
	<path d="M-399.5-29v15.5c0,12.5-1.1,16.7-20.1,16.7c-18.9,0-22.3-0.9-29.7-0.7c-8.9,0.2-14.4-3.8-14.5-10c0-5.1-0.6-8.5-0.5-15.7
		c0.2-14.8-0.5-12.9-3.3-27.3c-2.2-11.1-3.2-16.6-3.2-21.6c0.1,0,0.2,0.1,0.4,0.1c0.5,0.2,1,0.4,1.6,0.6c5.8,2.1,14.6,5.2,17.2,15.1
		c0.7,2.5,1.4,4.8,2.1,6.9c2.6,8.2,3.8,12-1.8,18.7c-6.3,7.6-3,16.2-1.8,18.7c1.1,2.4,3,5.4,5.6,5.4c1,0,2-0.5,2.6-1.3
		c1.1-1.4,0.8-3,0.5-4.2c-0.5-2.1,0.1-4,0.8-4.9c0.4-0.5,0.8-0.8,1.2-0.8c0.5,0,1.1,0.5,1.8,1.3c5.4,7.1,19.7,8,21.3,8.1
		c0.1,0,0.1,0,0.2,0c1.3,0,2.5-0.9,2.9-2.1c0.4-1.3-0.1-2.7-1.3-3.4c-6.5-3.9-12.6-8.6-14.9-11.2c0.8,0,1.6-0.1,2.4-0.1
		c4.7,0,8.9,0.6,12,1.1c2,0.3,3.4,0.5,4.5,0.5c2.5,0,3.4-1.3,3.8-2.1c0.6-1.4,0.2-2.9-1.3-4.5c-2.8-2.9-7.1-3.2-11.8-3.6
		c-3.2-0.2-6.4-0.5-9.3-1.5c-2-0.7-3.2-3.3-3.9-6.2c2.6,1.4,6.3,2.5,11.3,3c1.5,0.1,2.9,0.2,4.1,0.2c5,0,7.6-1.4,7.7-4.3
		c0.2-4-5.9-6.5-10.2-6.9c-2.1-0.2-4.9-1.6-7.3-3.1c2.6-0.7,4.8-1.6,5.2-1.7c1.5-0.6,2.2-2.2,1.7-3.7c-0.4-1.3-1.6-2.1-2.8-2.1
		c-0.2,0-0.5,0-0.7,0.1c0,0-1.5,0.4-3.4,0.4s-4.5-0.4-5.9-2.2c-3.2-3.9-4.5-7.6-4.4-8.9c0.4-0.4,0.7-0.7,1-1.1
		c0.5-0.6,1.2-1.4,1.6-1.4c0.2,0,1.6,0.2,4.6,3.5c3.7,4.1,8.5,5,11.8,5c4.5,0,11.2-1.9,11.6-5.9c0.2-1.5-0.7-3.5-3.6-4.1
		c-0.5-0.1-1-0.2-1.7-0.3c-1.7-0.3-5.7-1-8.5-1.8c8.1-3.4,10.8-11,10-15.1c-0.5-2.7-2.4-3.6-3.8-3.6c-1.6,0-3,1-4.1,2.9
		c-0.7,1.1-1.6,2.2-2.5,3.1c0.3-0.8,0.7-1.8,1.2-3c5-11.2,2.8-19.7,0.9-22.6c-1.1-1.8-2.5-2.2-3.4-2.2c-1,0-1.9,0.4-2.5,1.2
		c-1.1,1.3-1,3-0.8,4.1c0.5,2.8-1.3,7.1-2.6,8.9c-1.3-1.8-3.9-3.6-9-3.6c-4.4,0-8.8,1.3-9,1.4c-1.4,0.4-2.3,1.7-2.1,3.2
		c0.1,1.4,1.3,2.6,2.7,2.7c0.1,0,6,0.7,8.9,4.7c2,3,2.7,8.1,1.4,10.6c-0.5,1-1.3,1.5-2.6,1.5c-0.9,0-1.9,0-2.8,0c-1,0-1.9,0-2.9,0
		c-5.9,0-12.2-0.5-18.6-7c-0.8-0.8-1.5-1.7-2.1-2.9l0,0c0.1-1.8,0.2-4,0.3-7.3c0.9-26.9,5.7-40.9,19.3-40.9
		c13.6,0,25.8,4.5,42.4,40.9C-399.7-85.8-399.5-51.4-399.5-29z"/>
	<path d="M-409.9-25.7c-0.3,0.8-1.3,2.1-3.8,2.1c-1.1,0-2.5-0.2-4.5-0.5c-3.1-0.5-7.3-1.1-12-1.1c-0.8,0-1.6,0-2.4,0.1
		c2.3,2.6,8.4,7.3,14.9,11.2c1.2,0.7,1.7,2.1,1.3,3.4c-0.4,1.3-1.6,2.1-2.9,2.1c0,0-0.1,0-0.2,0c-1.6-0.1-15.9-1-21.3-8.1
		c-0.6-0.8-1.3-1.3-1.8-1.3c-0.4,0-0.8,0.3-1.2,0.8c-0.7,0.9-1.4,2.7-0.8,4.9c0.3,1.2,0.6,2.8-0.5,4.2c-0.6,0.8-1.6,1.3-2.6,1.3
		c-2.6,0-4.5-2.9-5.6-5.4c-1.2-2.5-4.5-11.2,1.8-18.7c5.7-6.8,4.5-10.5,1.8-18.7c-0.7-2-1.4-4.3-2.1-6.9
		c-2.7-10-11.4-13.1-17.2-15.1c-0.6-0.2-1.1-0.4-1.6-0.6c-0.1,0-0.2-0.1-0.4-0.1c0-1.1,0-2.1,0.1-3.2c0.1-1.5,0.3-3,0.6-4.7
		c0.6-3.9,1-6,1.3-8c0.2-1.4,0.4-2.7,0.5-4.5c0.6,1.1,1.3,2.1,2.1,2.9c6.5,6.5,12.8,7,18.6,7c1,0,2,0,2.9,0c1,0,1.9,0,2.8,0
		c1.3,0,2.1-0.4,2.6-1.5c1.3-2.5,0.6-7.6-1.4-10.6c-2.8-4.1-8.8-4.7-8.9-4.7c-1.4-0.1-2.6-1.3-2.7-2.7c-0.1-1.4,0.8-2.8,2.1-3.2
		c0.2-0.1,4.6-1.4,9-1.4c5.1,0,7.7,1.8,9,3.6c1.4-1.8,3.1-6.2,2.6-8.9c-0.2-1.2-0.3-2.9,0.8-4.1c0.6-0.7,1.5-1.2,2.5-1.2
		c0.9,0,2.2,0.4,3.4,2.2c1.9,3,4.2,11.5-0.9,22.6c-0.5,1.2-1,2.2-1.2,3c0.9-0.9,1.8-2,2.5-3.1c1.1-1.9,2.5-2.9,4.1-2.9
		c1.5,0,3.3,0.9,3.8,3.6c0.8,4.1-1.8,11.8-10,15.1c2.8,0.8,6.8,1.5,8.5,1.8c0.6,0.1,1.2,0.2,1.7,0.3c2.9,0.5,3.7,2.5,3.6,4.1
		c-0.4,4-7.2,5.9-11.6,5.9c-3.3,0-8.1-0.9-11.8-5c-3-3.3-4.4-3.5-4.6-3.5c-0.4,0-1,0.8-1.6,1.4c-0.3,0.4-0.6,0.8-1,1.1
		c0,1.2,1.3,4.9,4.4,8.9c1.4,1.8,4,2.2,5.9,2.2s3.4-0.4,3.4-0.4c0.2-0.1,0.5-0.1,0.7-0.1c1.3,0,2.4,0.8,2.8,2.1
		c0.5,1.5-0.2,3.1-1.7,3.7c-0.4,0.1-2.6,1-5.2,1.7c2.4,1.5,5.2,2.9,7.3,3.1c4.4,0.4,10.5,2.9,10.2,6.9c-0.1,2.8-2.7,4.3-7.7,4.3
		c-1.2,0-2.6-0.1-4.1-0.2c-5-0.5-8.7-1.6-11.3-3c0.7,2.9,1.9,5.5,3.9,6.2c2.9,1,6.1,1.3,9.3,1.5c4.6,0.3,9,0.7,11.8,3.6
		C-409.7-28.7-409.3-27.2-409.9-25.7z"/>
</g>
<path d="M-411.2-30.2c-2.8-2.9-7.1-3.2-11.8-3.6c-3.2-0.2-6.4-0.5-9.3-1.5c-2-0.7-3.2-3.3-3.9-6.2c2.6,1.4,6.3,2.5,11.3,3
	c1.5,0.1,2.9,0.2,4.1,0.2c5,0,7.6-1.4,7.7-4.3c0.2-4-5.9-6.5-10.2-6.9c-2.1-0.2-4.9-1.6-7.3-3.1c2.6-0.7,4.8-1.6,5.2-1.7
	c1.5-0.6,2.2-2.2,1.7-3.7c-0.4-1.3-1.6-2.1-2.8-2.1c-0.2,0-0.5,0-0.7,0.1c0,0-1.5,0.4-3.4,0.4s-4.5-0.4-5.9-2.2
	c-3.2-3.9-4.5-7.6-4.4-8.9c0.4-0.4,0.7-0.7,1-1.1c0.5-0.6,1.2-1.4,1.6-1.4c0.2,0,1.6,0.2,4.6,3.5c3.7,4.1,8.5,5,11.8,5
	c4.5,0,11.2-1.9,11.6-5.9c0.2-1.5-0.7-3.5-3.6-4.1c-0.5-0.1-1-0.2-1.7-0.3c-1.7-0.3-5.7-1-8.5-1.8c8.1-3.4,10.8-11,10-15.1
	c-0.5-2.7-2.4-3.6-3.8-3.6c-1.6,0-3,1-4.1,2.9c-0.7,1.1-1.6,2.2-2.5,3.1c0.3-0.8,0.7-1.8,1.2-3c5-11.2,2.8-19.7,0.9-22.6
	c-1.1-1.8-2.5-2.2-3.4-2.2c-1,0-1.9,0.4-2.5,1.2c-1.1,1.3-1,3-0.8,4.1c0.5,2.8-1.3,7.1-2.6,8.9c-1.3-1.8-3.9-3.6-9-3.6
	c-4.4,0-8.8,1.3-9,1.4c-1.4,0.4-2.3,1.7-2.1,3.2c0.1,1.4,1.3,2.6,2.7,2.7c0.1,0,6,0.7,8.9,4.7c2,3,2.7,8.1,1.4,10.6
	c-0.5,1-1.3,1.5-2.6,1.5c-0.9,0-1.9,0-2.8,0c-1,0-1.9,0-2.9,0c-5.9,0-12.2-0.5-18.6-7c-0.8-0.8-1.5-1.7-2.1-2.9l0,0
	c-5.9-10.3-5.8-34.7-5.8-70v-5.1c0-1.7-1.3-3-3-3H-491c-1.7,0-3,1.3-3,3v5.1c0,39.1,0,64.9-8,72.8c-0.4,0.4-0.9,0.8-1.3,1.2
	c-5.2,4.5-10.4,5.5-16.6,5.5c-1.2,0-2.3,0-3.5-0.1c-1.1,0-2.3-0.1-3.3-0.1c-1.3,0-2.1-0.4-2.6-1.5c-1.3-2.5-0.6-7.6,1.4-10.6
	c2.8-4.1,8.8-4.7,8.8-4.7c1.4-0.1,2.6-1.3,2.7-2.7c0.1-1.4-0.8-2.8-2.1-3.2c-0.2-0.1-4.6-1.4-9-1.4c-5.1,0-7.7,1.8-9,3.6
	c-1.4-1.8-3.1-6.2-2.6-8.9c0.2-1.2,0.3-2.9-0.8-4.1c-0.6-0.7-1.5-1.2-2.5-1.2c-0.9,0-2.2,0.4-3.4,2.2c-1.9,3-4.2,11.5,0.9,22.6
	c0.5,1.2,0.9,2.2,1.2,3c-0.9-0.9-1.8-2-2.5-3.1c-1.1-1.9-2.5-2.9-4.1-2.9c-1.5,0-3.3,1-3.9,3.6c-0.8,4.1,1.9,11.8,10,15.1
	c-2.8,0.8-6.8,1.5-8.5,1.8c-0.6,0.1-1.2,0.2-1.7,0.3c-2.9,0.5-3.7,2.5-3.6,4.1c0.4,4,7.1,5.9,11.6,5.9c3.3,0,8.1-0.9,11.8-5
	c3-3.3,4.4-3.5,4.6-3.5c0.4,0,1.1,0.8,1.6,1.4c0.3,0.4,0.7,0.8,1,1.1c0,1.2-1.3,4.9-4.4,8.9c-1.5,1.8-4,2.2-5.9,2.2
	s-3.4-0.4-3.4-0.4c-0.2-0.1-0.5-0.1-0.8-0.1c-1.3,0-2.4,0.8-2.9,2c-0.5,1.5,0.2,3.1,1.7,3.7c0.4,0.1,2.6,1,5.2,1.7
	c-2.4,1.5-5.2,2.9-7.3,3.1c-4.4,0.4-10.5,2.9-10.2,6.9c0.1,2.8,2.7,4.3,7.7,4.3c1.2,0,2.6-0.1,4.1-0.2c5-0.5,8.7-1.6,11.3-3
	c-0.7,2.9-1.9,5.5-3.9,6.2c-2.9,1-6.1,1.3-9.3,1.5c-4.6,0.3-9,0.7-11.8,3.6c-1.5,1.5-1.9,3-1.3,4.5c0.3,0.8,1.3,2.1,3.8,2.1
	c1.1,0,2.5-0.2,4.5-0.5c3.1-0.5,7.3-1.1,12-1.1c0.8,0,1.6,0,2.4,0.1c-2.3,2.6-8.4,7.3-14.9,11.2c-1.2,0.7-1.7,2.1-1.3,3.4
	s1.6,2.1,2.9,2.1h0.1c1.6-0.1,16-1,21.3-8.1c0.6-0.8,1.3-1.3,1.8-1.3c0.3,0,0.8,0.3,1.2,0.8c0.7,0.9,1.4,2.7,0.8,4.9
	c-0.3,1.2-0.5,2.8,0.5,4.2c0.6,0.8,1.6,1.3,2.6,1.3c2.6,0,4.5-2.9,5.6-5.3c1.2-2.5,4.5-11.2-1.8-18.7c-5.7-6.8-4.5-10.5-1.8-18.7
	c0.6-2,1.4-4.3,2.1-6.9c2.6-9.7,11.3-12.7,17.1-14.7c0.3-0.1,0.7-0.2,1-0.3c0.4-0.1,0.7-0.3,1.1-0.4c4.5-1.7,10-4.1,13.7-6.8
	c3.6,2.7,8.9,5,13.3,6.7c0.1,0,0.2,0.1,0.4,0.1c0.5,0.2,1,0.4,1.6,0.6c5.8,2.1,14.6,5.2,17.2,15.1c0.7,2.5,1.4,4.8,2.1,6.9
	c2.6,8.2,3.8,12-1.8,18.7c-6.3,7.6-3,16.2-1.8,18.7c1.1,2.4,3,5.4,5.6,5.4c1,0,2-0.5,2.6-1.3c1.1-1.4,0.8-3,0.5-4.2
	c-0.5-2.1,0.1-4,0.8-4.9c0.4-0.5,0.8-0.8,1.2-0.8c0.5,0,1.1,0.5,1.8,1.3c5.4,7.1,19.7,8,21.3,8.1c0.1,0,0.1,0,0.2,0
	c1.3,0,2.5-0.9,2.9-2.1c0.4-1.3-0.1-2.7-1.3-3.4c-6.5-3.9-12.6-8.6-14.9-11.2c0.8,0,1.6-0.1,2.4-0.1c4.7,0,8.9,0.6,12,1.1
	c2,0.3,3.4,0.5,4.5,0.5c2.5,0,3.4-1.3,3.8-2.1C-409.3-27.2-409.7-28.7-411.2-30.2z"/>
<path d="M-491-167.5c0,44.5,0.4,70.8-8.8,80s-18.9,7.5-26.9,7.5s-7.4-11.4-3.7-16.7c3.7-5.4,11.1-6,11.1-6s-12.4-3.7-15.1,1.7
	c-2.7,5.4-8.7-5.7-7.7-11.7s-6.9,3.7-0.1,18.8c6.8,15.1-3.2,8.4-6.6,2.7s-5,7.3,6,11.7s-5.7,6.7-11.1,7.7c-5.4,1,9.4,8.5,17.1,0
	s9.7-2.7,11.7-1s-0.3,7.7-4.4,12.7c-4,5-12.4,2.8-12.4,2.8s7.7,3.2,11.1,2s-7.4,7.9-14.1,8.5c-6.7,0.7-13.4,6.4,1,5
	c14.4-1.3,15.4-8.4,15.4-8.4s0.7,14.7-6.7,17.4s-16.4,0.7-19.9,4.4s6.8-0.7,19.6,0c12.7,0.7-13.7,16.7-13.7,16.7s14.4-0.7,19.1-6.9
	c4.7-6.2,10.7,0.2,9,6.9s10-7.4,1.7-17.4c-8.4-10-3.7-15.7-0.3-28.3s15.6-15.4,21-17.4s12.1-5,14.7-8c2.7,3,9.4,6,14.7,8
	c5.4,2,17.3,5.2,20.6,17.7s8,18.3-0.3,28.3s3.3,24.1,1.7,17.4s4.4-13.1,9-6.9s19.1,6.9,19.1,6.9s-26.5-16.1-13.7-16.7
	c12.7-0.7,23.1,3.7,19.6,0s-12.5-1.7-19.9-4.4s-6.7-17.4-6.7-17.4s1,7,15.4,8.4c14.4,1.3,7.7-4.4,1-5c-6.7-0.7-17.4-9.7-14.1-8.5
	s11.1-2,11.1-2s-8.4,2.2-12.4-2.8s-6.4-11.1-4.4-12.7s4.1-7.5,11.7,1s22.4,1,17.1,0c-5.4-1-22.1-3.3-11.1-7.7
	c11.1-4.4,9.4-17.4,6-11.7s-13.4,12.4-6.6-2.7s-1.1-24.8-0.1-18.8s-5,17.1-7.7,11.7s-15.1-1.7-15.1-1.7s7.4,0.7,11.1,6
	s4.4,16.7-3.7,16.7s-17.3,1.4-26.5-7.8s-8.8-35.5-8.8-80H-491z"/>
<g>
	<g class="st0">
		<path d="M568.3,192.4L529.4,72.2h11.1c9.9,30.6,31.3,96.1,33.8,109h0.2c2.9-14.3,25.2-79.3,35.5-109h11.3
			c9.1,27.3,32.3,97.9,34.5,108.9h0.2c4-16,26.2-80.1,36.5-108.9h10.6l-41.7,120.1h-11.8c-8.9-27.8-31.8-96.1-34.3-108.5h-0.2
			c-2.7,12.6-24.9,77.2-35.5,108.5H568.3z"/>
		<path d="M716.9,152.3c1,19.5,13.8,33.5,33.5,33.5c14.8,0,23.4-6.6,28.8-16.5h9.9c-4.4,11.3-15.8,25.4-39.9,25.4
			c-27.8,0-42.2-21.5-42.2-44.1c0-26.4,17.5-44.8,41.7-44.8c31.5,0,41.7,23.9,41.7,43.6v2.9H716.9z M779.7,143.9
			c-0.8-11.9-7.1-29.3-31.1-29.3c-19.2,0-29.4,12.5-31.3,29.3H779.7z"/>
		<path d="M882,173c0,6.7,0.5,17.3,0.8,19.4h-9.4c-0.7-3.7-1-10.9-1-13.8c-4.4,9.4-13.8,16.2-32.8,16.2c-24.2,0-32.6-14.6-32.6-26.8
			c0-21.2,19.7-27.3,43.2-27.3h22.2v-5.4c0-10.6-4.5-20.9-25.6-20.9c-18.7,0-23.2,8.6-25.2,18h-9.8c1.2-11.6,8.8-26.6,35.2-26.6
			c27.3,0,35,13.6,35,27.4V173z M872.4,149h-21.9c-22.5,0-33.7,4.7-33.7,18.5c0,9.9,7.2,18.5,23.6,18.5c26.6,0,32-16.7,32-32.1V149z
			"/>
		<path d="M912.8,129.4c0-7.1,0-14.8-0.2-21.2h9.4c0.3,3.2,0.5,11.1,0.5,18.2c3.5-9.4,13-20.5,32-20.5c19.2,0,32.3,11.8,32.3,35.7
			v50.8h-9.9v-48.8c0-16.2-6.1-28.6-23.9-28.6c-20.4,0-30.5,16-30.5,37.9v39.5h-9.8V129.4z"/>
		<path d="M1016.9,83V65.2h9.8V83H1016.9z M1016.9,108.2h9.8v84.1h-9.8V108.2z"/>
		<path d="M1056.3,129.4c0-7.1,0-14.8-0.2-21.2h9.4c0.3,3.2,0.5,11.1,0.5,18.2c3.5-9.4,13-20.5,32-20.5c19.2,0,32.3,11.8,32.3,35.7
			v50.8h-9.9v-48.8c0-16.2-6.1-28.6-23.9-28.6c-20.4,0-30.5,16-30.5,37.9v39.5h-9.8V129.4z"/>
		<path d="M1235.8,180.4c0,32.5-8.9,52-43.1,52c-30.6,0-37.5-18.2-39.2-28.3h10.1c2.9,10.3,9.9,19.4,29.6,19.4
			c28.8,0,33-18.5,33-42.7v-5.2c-5.2,11.4-15.7,18.5-33.8,18.5c-23.4,0-39.9-18.3-39.9-42.7c0-27.4,20-45.4,41.9-45.4
			c20.2,0,28.9,9.6,31.8,17.2c0-4.7,0.2-12.3,0.5-14.8h9.3c-0.2,8.1-0.2,16.2-0.2,24.2V180.4z M1194.5,184.6
			c19.9,0,32.1-12.5,32.1-34.8c0-22.9-11.8-34.8-31.1-34.8c-22.7,0-32.8,18.7-32.8,35.8C1162.7,171,1176.3,184.6,1194.5,184.6z"/>
	</g>
	<g class="st0">
		<path class="st1" d="M568.3,192.4L529.4,72.2h11.1c9.9,30.6,31.3,96.1,33.8,109h0.2c2.9-14.3,25.2-79.3,35.5-109h11.3
			c9.1,27.3,32.3,97.9,34.5,108.9h0.2c4-16,26.2-80.1,36.5-108.9h10.6l-41.7,120.1h-11.8c-8.9-27.8-31.8-96.1-34.3-108.5h-0.2
			c-2.7,12.6-24.9,77.2-35.5,108.5H568.3z"/>
		<path class="st1" d="M716.9,152.3c1,19.5,13.8,33.5,33.5,33.5c14.8,0,23.4-6.6,28.8-16.5h9.9c-4.4,11.3-15.8,25.4-39.9,25.4
			c-27.8,0-42.2-21.5-42.2-44.1c0-26.4,17.5-44.8,41.7-44.8c31.5,0,41.7,23.9,41.7,43.6v2.9H716.9z M779.7,143.9
			c-0.8-11.9-7.1-29.3-31.1-29.3c-19.2,0-29.4,12.5-31.3,29.3H779.7z"/>
		<path class="st1" d="M882,173c0,6.7,0.5,17.3,0.8,19.4h-9.4c-0.7-3.7-1-10.9-1-13.8c-4.4,9.4-13.8,16.2-32.8,16.2
			c-24.2,0-32.6-14.6-32.6-26.8c0-21.2,19.7-27.3,43.2-27.3h22.2v-5.4c0-10.6-4.5-20.9-25.6-20.9c-18.7,0-23.2,8.6-25.2,18h-9.8
			c1.2-11.6,8.8-26.6,35.2-26.6c27.3,0,35,13.6,35,27.4V173z M872.4,149h-21.9c-22.5,0-33.7,4.7-33.7,18.5c0,9.9,7.2,18.5,23.6,18.5
			c26.6,0,32-16.7,32-32.1V149z"/>
		<path class="st1" d="M912.8,129.4c0-7.1,0-14.8-0.2-21.2h9.4c0.3,3.2,0.5,11.1,0.5,18.2c3.5-9.4,13-20.5,32-20.5
			c19.2,0,32.3,11.8,32.3,35.7v50.8h-9.9v-48.8c0-16.2-6.1-28.6-23.9-28.6c-20.4,0-30.5,16-30.5,37.9v39.5h-9.8V129.4z"/>
		<path class="st1" d="M1016.9,83V65.2h9.8V83H1016.9z M1016.9,108.2h9.8v84.1h-9.8V108.2z"/>
		<path class="st1" d="M1056.3,129.4c0-7.1,0-14.8-0.2-21.2h9.4c0.3,3.2,0.5,11.1,0.5,18.2c3.5-9.4,13-20.5,32-20.5
			c19.2,0,32.3,11.8,32.3,35.7v50.8h-9.9v-48.8c0-16.2-6.1-28.6-23.9-28.6c-20.4,0-30.5,16-30.5,37.9v39.5h-9.8V129.4z"/>
		<path class="st1" d="M1235.8,180.4c0,32.5-8.9,52-43.1,52c-30.6,0-37.5-18.2-39.2-28.3h10.1c2.9,10.3,9.9,19.4,29.6,19.4
			c28.8,0,33-18.5,33-42.7v-5.2c-5.2,11.4-15.7,18.5-33.8,18.5c-23.4,0-39.9-18.3-39.9-42.7c0-27.4,20-45.4,41.9-45.4
			c20.2,0,28.9,9.6,31.8,17.2c0-4.7,0.2-12.3,0.5-14.8h9.3c-0.2,8.1-0.2,16.2-0.2,24.2V180.4z M1194.5,184.6
			c19.9,0,32.1-12.5,32.1-34.8c0-22.9-11.8-34.8-31.1-34.8c-22.7,0-32.8,18.7-32.8,35.8C1162.7,171,1176.3,184.6,1194.5,184.6z"/>
	</g>
	<g class="st0">
		<path d="M540.7,270.4h9.2v99.4h67.8l-1.7,8.8h-75.3V270.4z"/>
		<path d="M699.5,361.2c0,6.1,0.5,15.6,0.8,17.4h-8.5c-0.6-3.3-0.9-9.9-0.9-12.4c-3.9,8.5-12.4,14.6-29.6,14.6
			c-21.8,0-29.4-13.2-29.4-24.1c0-19.1,17.7-24.6,39-24.6h20v-4.9c0-9.5-4.1-18.8-23-18.8c-16.8,0-20.9,7.7-22.7,16.2h-8.8
			c1.1-10.5,7.9-23.9,31.7-23.9c24.6,0,31.5,12.3,31.5,24.7V361.2z M690.9,339.5h-19.7c-20.3,0-30.3,4.2-30.3,16.7
			c0,8.9,6.5,16.7,21.2,16.7c24,0,28.8-15,28.8-29V339.5z"/>
		<path d="M726.5,264.1h8.8v52.4c3.8-6.7,12.6-15.8,29.7-15.8c21.5,0,36.4,17,36.4,38.8c0,25-15.2,41.2-36.8,41.2
			c-17.1,0-25.2-8-29.3-15.6c-0.2,4.5-0.2,10.3-0.5,13.5h-8.5c0.2-8.8,0.2-17.7,0.2-26.5V264.1z M763.9,308.9
			c-19.7,0-29.3,14.1-29.3,31.7c0,20.2,11.8,31.8,29.4,31.8c20.3,0,28-16.2,28-32.7C792.1,325.4,783.9,308.9,763.9,308.9z"/>
		<path d="M824.3,342.6c0.9,17.6,12.4,30.2,30.2,30.2c13.3,0,21.1-5.9,25.9-14.9h8.9c-3.9,10.2-14.2,22.9-35.9,22.9
			c-25,0-38-19.4-38-39.7c0-23.8,15.8-40.3,37.6-40.3c28.3,0,37.6,21.5,37.6,39.3v2.6H824.3z M880.8,335c-0.8-10.8-6.4-26.4-28-26.4
			c-17.3,0-26.5,11.2-28.2,26.4H880.8z"/>
		<path d="M910.2,378.7V264.1h8.8v114.6H910.2z"/>
		<path d="M946.4,378.7V264.1h8.8v114.6H946.4z"/>
		<path d="M982.6,280.1v-16.1h8.8v16.1H982.6z M982.6,302.9h8.8v75.8h-8.8V302.9z"/>
		<path d="M1018.1,322c0-6.4,0-13.3-0.2-19.1h8.5c0.3,2.9,0.5,10,0.5,16.4c3.2-8.5,11.7-18.5,28.8-18.5c17.3,0,29.1,10.6,29.1,32.1
			v45.8h-8.9v-44c0-14.6-5.5-25.8-21.5-25.8c-18.3,0-27.4,14.4-27.4,34.1v35.6h-8.8V322z"/>
		<path d="M1179.8,367.9c0,29.3-8,46.8-38.8,46.8c-27.6,0-33.8-16.4-35.3-25.5h9.1c2.6,9.2,8.9,17.4,26.7,17.4
			c25.9,0,29.7-16.7,29.7-38.5v-4.7c-4.7,10.3-14.1,16.7-30.5,16.7c-21.1,0-35.9-16.5-35.9-38.5c0-24.7,18-40.9,37.7-40.9
			c18.2,0,26.1,8.6,28.6,15.5c0-4.2,0.2-11.1,0.5-13.3h8.3c-0.2,7.3-0.2,14.6-0.2,21.8V367.9z M1142.6,371.7c17.9,0,29-11.2,29-31.4
			c0-20.6-10.6-31.4-28-31.4c-20.5,0-29.6,16.8-29.6,32.3C1113.9,359.4,1126.2,371.7,1142.6,371.7z"/>
		<path d="M1257.5,347.7c4.4,14.4,14.6,24.7,37.6,24.7c23.6,0,33.5-9.9,33.5-21.5c0-12.3-6.4-20.2-37-25.3
			c-29.9-5-38.2-14.1-38.2-29c0-17.7,16.7-28.5,39.1-28.5c34.1,0,41.5,18,42.7,28.2h-9.9c-2.4-8.5-7.6-19.6-33-19.6
			c-17.1,0-29.1,5.9-29.1,18.9c0,10.2,4.4,17,31.2,21.4c37.9,6.2,44.1,18.2,44.1,32.9c0,16.4-13.2,30.9-43.8,30.9
			c-28.3,0-43.7-13-47.3-33.2H1257.5z"/>
		<path d="M1350.4,302.9h15.9v-25.6h8.8v25.6h21.1v7.7h-21.1v46.8c0,10,2.7,14.2,11.5,14.2c2.3,0,5.8-0.2,8-0.8v7.3
			c-3.2,1.2-6.2,1.2-9.9,1.2c-14.1,0-18.5-6.4-18.5-21.4v-47.4h-15.9V302.9z"/>
		<path d="M1476.5,356.5c0,7.4,0,14.7,0.2,22.1h-8.5c-0.3-2.1-0.6-8.6-0.6-15c-3.8,10-11.1,17.1-28,17.1c-16.2,0-28.6-8.5-28.6-30.5
			v-47.4h8.8v45.5c0,12.3,5,24,20.6,24c18.9,0,27.3-10.9,27.3-35.6v-33.8h8.9V356.5z"/>
		<path d="M1571.5,264.1v92.2c0,7.4,0,15,0.2,22.4h-8.3c-0.5-3.8-0.6-8.9-0.6-13c-3.8,6.7-10.8,15.2-29.4,15.2
			c-22.4,0-36.7-16.8-36.7-39.4c0-24.6,17.9-40.6,38.2-40.6c19.6,0,25.8,9.7,27.9,13.8v-50.5H1571.5z M1534.1,372.6
			c21.2,0,29.3-13.5,29.3-32.3c0-18.6-6.4-31.5-28.5-31.5c-19.6,0-29.1,16.2-29.1,32.4C1505.7,356.2,1515.1,372.6,1534.1,372.6z"/>
		<path d="M1599.7,302.9c17.9,39.6,28.3,62.5,31.1,69.4h0.2c3-7.4,11.7-30.2,28.5-69.4h9.5l-32.1,75.8c-13.6,32-19.1,36.1-34.4,36.1
			c-2.4,0-6.2-0.3-8.8-0.8v-8.8c2.6,0.5,7,0.8,8.6,0.8c10.3,0,15-4.9,23.6-23.5l-35.9-79.6H1599.7z"/>
	</g>
	<g>
		<g>
			<path class="st2" d="M207.8,286.3c0,29.8-8.9,28.2-8.9,54s0,21.2,0,61.5s-19.3,24.7-53.2,24.7c-33.8,0-34.9-3.5-69.3,0.2
				c-26,2.8-26.4-21.8-26.4-91.5c0-62.5,2.2-106.9,19.9-136.7c42.1-70.6,69.3-81.4,86.2-81.4s37.1,16.9,37.1,48.4
				c0,31.4,0,16.9,0,43.5c0,6.7,0.9,13.1,2.3,19.4c-11,9.7-22.2,11.8-35.4,11.8c-2.5,0-5-0.1-7.4-0.1c-2.4-0.1-4.8-0.1-7.1-0.1
				c-2.8,0-4.5-0.9-5.6-3.1c-2.8-5.3-1.3-16.2,3-22.5c6-8.7,18.7-10.1,18.8-10.1c3-0.3,5.5-2.7,5.8-5.7s-1.6-5.9-4.5-6.7
				c-0.4-0.1-9.8-2.9-19.2-2.9c-10.9,0-16.4,3.8-19.2,7.7c-2.9-3.9-6.6-13.1-5.6-19c0.4-2.5,0.7-6.1-1.6-8.8
				c-1.3-1.6-3.3-2.5-5.3-2.5s-4.8,0.8-7.2,4.6c-4.1,6.3-8.9,24.5,1.8,48.2c1.2,2.6,2,4.7,2.6,6.5c-1.9-1.9-3.9-4.2-5.3-6.6
				c-2.4-4.1-5.4-6.2-8.8-6.2c-3.1,0-7.1,2-8.2,7.7c-1.7,8.8,3.9,25.1,21.2,32.3c-5.9,1.7-14.5,3.2-18.1,3.9
				c-1.3,0.2-2.6,0.4-3.6,0.6c-6.1,1.1-7.9,5.4-7.6,8.7c0.8,8.5,15.2,12.5,24.7,12.5c7.1,0,17.2-1.8,25.1-10.6
				c6.4-7.1,9.3-7.5,9.8-7.5c0.9,0,2.3,1.6,3.4,2.9c0.7,0.8,1.4,1.6,2.2,2.4c0.1,2.7-2.7,10.5-9.4,18.8c-3.1,3.9-8.6,4.7-12.6,4.7
				s-7.2-0.8-7.2-0.8c-0.5-0.1-1.1-0.2-1.6-0.2c-2.7,0-5.2,1.7-6.1,4.3c-1.1,3.2,0.5,6.7,3.6,7.9c0.8,0.3,5.5,2.2,11,3.6
				c-5.2,3.2-11.1,6.1-15.6,6.6c-9.3,0.9-22.2,6.1-21.8,14.8c0.3,6,5.8,9.1,16.4,9.1c2.6,0,5.5-0.1,8.8-0.5
				c10.7-1,18.5-3.4,24.1-6.3c-1.5,6.2-4.1,11.7-8.3,13.2c-6.1,2.2-13,2.7-19.8,3.3c-9.8,0.7-19.1,1.4-25,7.6
				c-3.1,3.2-4,6.4-2.7,9.5c0.7,1.7,2.7,4.5,8,4.5c2.3,0,5.3-0.4,9.5-1c6.6-1,15.6-2.3,25.6-2.3c1.7,0,3.4,0,5,0.1
				c-4.8,5.5-17.9,15.5-31.7,23.8c-2.5,1.5-3.6,4.5-2.8,7.3c0.8,2.7,3.3,4.5,6.1,4.5c0.1,0,0.2,0,0.3,0c3.4-0.2,34-2,45.4-17.2
				c1.3-1.8,2.7-2.8,3.7-2.8c0.7,0,1.7,0.6,2.5,1.7c1.5,1.9,2.9,5.8,1.8,10.4c-0.6,2.4-1.2,6,1.1,8.9c1.3,1.7,3.4,2.7,5.6,2.7
				c5.5,0,9.5-6.2,11.9-11.4c2.5-5.3,9.5-23.8-3.9-39.9c-12.1-14.5-9.5-22.4-3.9-39.9c1.4-4.3,3-9.2,4.4-14.6
				c5.5-20.6,24.1-27,36.4-31.2c0.7-0.3,1.4-0.5,2-0.7C206.7,270.9,207.8,278.3,207.8,286.3z"/>
			<path class="st2" d="M416.6,354.6v33c0,26.6-2.4,35.5-42.7,35.5s-47.5-1.9-63.2-1.5c-18.9,0.4-30.7-8.1-30.8-21.2
				c-0.1-10.8-1.3-18.1-1.1-33.5c0.5-31.5-1-27.6-7-58.1c-4.7-23.7-6.8-35.3-6.8-46c0.3,0.1,0.5,0.2,0.8,0.3c1,0.4,2.2,0.8,3.4,1.2
				c12.3,4.4,31,11,36.6,32.2c1.4,5.4,3,10.3,4.4,14.6c5.6,17.5,8.2,25.4-3.9,39.9c-13.4,16.1-6.4,34.6-3.9,39.9
				c2.4,5.2,6.5,11.4,11.9,11.4c2.2,0,4.2-1,5.6-2.7c2.3-2.9,1.7-6.5,1.1-8.9c-1.1-4.6,0.2-8.5,1.8-10.4c0.8-1,1.7-1.7,2.5-1.7
				c1,0,2.4,1,3.7,2.8c11.5,15.1,42,17,45.4,17.2c0.1,0,0.2,0,0.3,0c2.8,0,5.3-1.8,6.1-4.5c0.9-2.8-0.3-5.8-2.8-7.3
				c-13.8-8.3-26.9-18.3-31.7-23.8c1.7-0.1,3.4-0.1,5.1-0.1c10,0,19,1.3,25.6,2.3c4.2,0.6,7.2,1,9.5,1c5.3,0,7.3-2.8,8-4.5
				c1.3-3.1,0.4-6.3-2.7-9.5c-5.9-6.1-15.2-6.8-25-7.6c-6.7-0.5-13.7-1-19.8-3.3c-4.2-1.5-6.8-7-8.3-13.2c5.6,2.9,13.4,5.3,24.1,6.3
				c3.3,0.3,6.2,0.4,8.8,0.4c10.6,0,16.1-3.1,16.4-9.1c0.4-8.6-12.5-13.8-21.8-14.8c-4.5-0.4-10.4-3.4-15.6-6.6
				c5.5-1.4,10.2-3.3,11-3.6c3.1-1.3,4.7-4.7,3.6-7.9c-0.9-2.7-3.4-4.4-6.1-4.4c-0.5,0-1,0.1-1.6,0.2c0,0-3.2,0.8-7.2,0.8
				s-9.5-0.8-12.6-4.7c-6.7-8.4-9.5-16.2-9.5-18.8c0.8-0.8,1.5-1.6,2.2-2.4c1.1-1.3,2.5-2.9,3.4-2.9c0.5,0,3.4,0.4,9.9,7.5
				c7.9,8.8,18.1,10.6,25.1,10.6c9.5,0,24-4,24.7-12.5c0.3-3.3-1.5-7.5-7.6-8.7c-1-0.2-2.2-0.4-3.6-0.6c-3.6-0.6-12.2-2.2-18.1-3.9
				c17.3-7.2,22.9-23.4,21.2-32.3c-1.1-5.7-5.1-7.7-8.2-7.7c-3.4,0-6.4,2.1-8.8,6.2c-1.4,2.4-3.4,4.7-5.3,6.6
				c0.6-1.7,1.5-3.9,2.6-6.5c10.7-23.7,5.9-41.9,1.8-48.2c-2.4-3.8-5.3-4.6-7.2-4.6c-2,0-4,0.9-5.3,2.5c-2.3,2.7-2,6.3-1.6,8.8
				c1,5.9-2.7,15.1-5.6,19c-2.8-3.9-8.3-7.7-19.2-7.7c-9.4,0-18.8,2.8-19.2,2.9c-2.9,0.9-4.8,3.7-4.5,6.7s2.7,5.5,5.8,5.7
				c0.1,0,12.9,1.4,18.8,10.1c4.3,6.3,5.8,17.3,3,22.5c-1.1,2.2-2.8,3.1-5.6,3.1c-2,0-4,0-6.1,0.1c-2,0-4.1,0.1-6.2,0.1
				c-12.5,0-25.9-1.1-39.7-14.9c-1.7-1.7-3.2-3.7-4.5-6.1l0,0c0.3-3.8,0.5-8.5,0.7-15.5c2-57.2,12.1-87,41.1-87s55,9.6,90.3,87
				C416.1,233.9,416.6,307.1,416.6,354.6z"/>
		</g>
		<path class="st3" d="M221.6,59.8c0,94.8,0.8,150.8-18.8,170.4s-40.2,16-57.3,16s-15.7-24.2-7.8-35.6s23.5-12.8,23.5-12.8
			s-26.4-7.8-32.1,3.6c-5.7,11.4-18.5-12.1-16.4-25c2.1-12.8-14.7,7.8-0.2,39.9s-6.9,17.8-14,5.7s-10.7,15.6,12.8,24.9
			c23.5,9.3-12.1,14.3-23.5,16.4s20.1,18,36.4,0s20.7-5.7,25-2.1s-0.7,16.4-9.3,27.1s-26.4,6.1-26.4,6.1s16.4,6.8,23.5,4.3
			s-15.7,16.8-29.9,18.2s-28.5,13.5,2.1,10.7s32.8-17.8,32.8-17.8s1.4,31.4-14.3,37.1s-34.8,1.4-42.4,9.3c-7.5,7.8,14.6-1.4,41.6,0
			s-29.2,35.6-29.2,35.6s30.7-1.5,40.6-14.6c10-13.2,22.8,0.4,19.2,14.6c-3.6,14.3,21.4-15.7,3.6-37.1s-7.8-33.5-0.7-60.2
			s33.3-32.8,44.7-37.1c11.4-4.3,25.7-10.7,31.4-17.1c5.7,6.4,20,12.8,31.4,17.1c11.4,4.3,36.8,11,43.9,37.8
			c7.1,26.7,17.1,38.9-0.7,60.2c-17.8,21.4,7.1,51.3,3.6,37.1s9.3-27.8,19.2-14.6s40.6,14.6,40.6,14.6s-56.3-34.2-29.2-35.6
			c27.1-1.4,49.2,7.8,41.6,0c-7.5-7.8-26.7-3.6-42.4-9.3c-15.7-5.7-14.3-37.1-14.3-37.1s2.1,15,32.8,17.8
			c30.7,2.9,16.4-9.3,2.1-10.7s-37.1-20.7-29.9-18.2c7.1,2.5,23.5-4.3,23.5-4.3s-17.8,4.6-26.4-6.1s-13.5-23.5-9.3-27.1
			c4.3-3.6,8.7-15.9,25,2.1s47.8,2.1,36.4,0s-47.1-7.1-23.5-16.4s20-37,12.8-24.9c-7.1,12.1-28.5,26.4-14-5.7s-2.4-52.8-0.2-39.9
			s-10.7,36.4-16.4,25c-5.7-11.4-32.1-3.6-32.1-3.6s15.7,1.4,23.5,12.8c7.8,11.4,9.3,35.6-7.8,35.6c-17.1,0-36.9,3-56.5-16.6
			s-18.8-75.5-18.8-170.4L221.6,59.8L221.6,59.8z"/>
	</g>
</g>
</svg>
