<?xml version="1.0" encoding="utf-8"?>
<!-- Generator: Adobe Illustrator 26.5.0, SVG Export Plug-In . SVG Version: 6.00 Build 0)  -->
<svg version="1.1" id="Layer_1" xmlns="http://www.w3.org/2000/svg" xmlns:xlink="http://www.w3.org/1999/xlink" x="0px" y="0px"
	 viewBox="0 0 1077.8 497.5" style="enable-background:new 0 0 1077.8 497.5;" xml:space="preserve">
<style type="text/css">
	.st0{stroke:#000000;stroke-width:3;stroke-miterlimit:10;}
	.st1{font-family:'AcuminProWide-ExtraLight';}
	.st2{font-size:117.1274px;}
	.st3{fill:#C785A2;}
	.st4{fill:#A36C76;}
</style>
<g>
	<path d="M-497.5-61.2c0,14-4.2,13.2-4.2,25.4c0,12.1,0,10,0,28.9c0,18.9-9.1,11.6-25,11.6c-15.9,0-16.4-1.6-32.6,0.1
		c-12.2,1.3-12.4-10.2-12.4-43c0-29.3,1-50.2,9.4-64.2c19.8-33.2,32.6-38.2,40.5-38.2c8,0,17.4,8,17.4,22.7c0,14.8,0,7.9,0,20.4
		c0,3.2,0.4,6.1,1.1,9.1c-5.2,4.5-10.4,5.5-16.6,5.5c-1.2,0-2.3,0-3.5-0.1c-1.1,0-2.3-0.1-3.3-0.1c-1.3,0-2.1-0.4-2.6-1.5
		c-1.3-2.5-0.6-7.6,1.4-10.6c2.8-4.1,8.8-4.7,8.8-4.7c1.4-0.1,2.6-1.3,2.7-2.7c0.1-1.4-0.8-2.8-2.1-3.2c-0.2-0.1-4.6-1.4-9-1.4
		c-5.1,0-7.7,1.8-9,3.6c-1.4-1.8-3.1-6.2-2.6-8.9c0.2-1.2,0.3-2.9-0.8-4.1c-0.6-0.7-1.5-1.2-2.5-1.2c-0.9,0-2.2,0.4-3.4,2.2
		c-1.9,3-4.2,11.5,0.9,22.6c0.5,1.2,0.9,2.2,1.2,3c-0.9-0.9-1.8-2-2.5-3.1c-1.1-1.9-2.5-2.9-4.1-2.9c-1.5,0-3.3,1-3.9,3.6
		c-0.8,4.1,1.9,11.8,10,15.1c-2.8,0.8-6.8,1.5-8.5,1.8c-0.6,0.1-1.2,0.2-1.7,0.3c-2.9,0.5-3.7,2.5-3.6,4.1c0.4,4,7.1,5.9,11.6,5.9
		c3.3,0,8.1-0.9,11.8-5c3-3.3,4.4-3.5,4.6-3.5c0.4,0,1.1,0.8,1.6,1.4c0.3,0.4,0.7,0.8,1,1.1c0,1.2-1.3,4.9-4.4,8.9
		c-1.5,1.8-4,2.2-5.9,2.2c-1.9,0-3.4-0.4-3.4-0.4c-0.2-0.1-0.5-0.1-0.8-0.1c-1.3,0-2.4,0.8-2.9,2c-0.5,1.5,0.2,3.1,1.7,3.7
		c0.4,0.1,2.6,1,5.2,1.7c-2.4,1.5-5.2,2.9-7.3,3.1c-4.4,0.4-10.5,2.9-10.2,6.9c0.1,2.8,2.7,4.3,7.7,4.3c1.2,0,2.6-0.1,4.1-0.2
		c5-0.5,8.7-1.6,11.3-3c-0.7,2.9-1.9,5.5-3.9,6.2c-2.9,1-6.1,1.3-9.3,1.5c-4.6,0.3-9,0.7-11.8,3.6c-1.5,1.5-1.9,3-1.3,4.5
		c0.3,0.8,1.3,2.1,3.8,2.1c1.1,0,2.5-0.2,4.5-0.5c3.1-0.5,7.3-1.1,12-1.1c0.8,0,1.6,0,2.4,0.1c-2.3,2.6-8.4,7.3-14.9,11.2
		c-1.2,0.7-1.7,2.1-1.3,3.4c0.4,1.3,1.6,2.1,2.9,2.1c0,0,0.1,0,0.1,0c1.6-0.1,16-1,21.3-8.1c0.6-0.8,1.3-1.3,1.8-1.3
		c0.3,0,0.8,0.3,1.2,0.8c0.7,0.9,1.4,2.7,0.8,4.9c-0.3,1.2-0.5,2.8,0.5,4.2c0.6,0.8,1.6,1.3,2.6,1.3c2.6,0,4.5-2.9,5.6-5.3
		c1.2-2.5,4.5-11.2-1.8-18.7c-5.7-6.8-4.5-10.5-1.8-18.7c0.6-2,1.4-4.3,2.1-6.9c2.6-9.7,11.3-12.7,17.1-14.7c0.3-0.1,0.7-0.2,1-0.3
		C-498-68.4-497.5-64.9-497.5-61.2z"/>
	<path d="M-498.7-71.6c-0.3,0.1-0.6,0.2-1,0.3c-5.8,2-14.5,5-17.1,14.7c-0.7,2.5-1.4,4.8-2.1,6.9c-2.7,8.2-3.9,12,1.8,18.7
		c6.3,7.6,3,16.2,1.8,18.7c-1.1,2.4-3,5.3-5.6,5.3c-1,0-2-0.5-2.6-1.3c-1.1-1.4-0.8-3-0.5-4.2c0.5-2.1-0.1-4-0.8-4.9
		c-0.4-0.5-0.8-0.8-1.2-0.8c-0.5,0-1.1,0.5-1.8,1.3c-5.4,7.1-19.7,8-21.3,8.1c0,0-0.1,0-0.1,0c-1.3,0-2.5-0.9-2.9-2.1
		c-0.4-1.3,0.1-2.7,1.3-3.4c6.5-3.9,12.6-8.6,14.9-11.2c-0.8,0-1.6-0.1-2.4-0.1c-4.7,0-8.9,0.6-12,1.1c-2,0.3-3.4,0.5-4.5,0.5
		c-2.5,0-3.4-1.3-3.8-2.1c-0.6-1.4-0.2-2.9,1.3-4.5c2.8-2.9,7.1-3.2,11.8-3.6c3.2-0.2,6.4-0.5,9.3-1.5c2-0.7,3.2-3.3,3.9-6.2
		c-2.6,1.4-6.3,2.5-11.3,3c-1.5,0.2-2.9,0.2-4.1,0.2c-5,0-7.5-1.4-7.7-4.3c-0.2-4,5.9-6.5,10.2-6.9c2.1-0.2,4.9-1.6,7.3-3.1
		c-2.6-0.7-4.8-1.6-5.2-1.7c-1.5-0.6-2.2-2.2-1.7-3.7c0.4-1.2,1.6-2,2.9-2c0.2,0,0.5,0,0.8,0.1c0,0,1.5,0.4,3.4,0.4
		c1.9,0,4.5-0.4,5.9-2.2c3.1-3.9,4.5-7.6,4.4-8.9c-0.4-0.4-0.7-0.7-1-1.1c-0.5-0.6-1.2-1.4-1.6-1.4c-0.2,0-1.6,0.2-4.6,3.5
		c-3.7,4.1-8.5,5-11.8,5c-4.5,0-11.2-1.9-11.6-5.9c-0.2-1.5,0.7-3.5,3.6-4.1c0.5-0.1,1.1-0.2,1.7-0.3c1.7-0.3,5.7-1,8.5-1.8
		c-8.1-3.4-10.8-11-10-15.1c0.5-2.7,2.4-3.6,3.9-3.6c1.6,0,3,1,4.1,2.9c0.7,1.1,1.6,2.2,2.5,3.1c-0.3-0.8-0.7-1.8-1.2-3
		c-5-11.1-2.8-19.7-0.9-22.6c1.2-1.8,2.5-2.2,3.4-2.2c1,0,1.9,0.4,2.5,1.2c1.1,1.3,1,3,0.8,4.1c-0.5,2.8,1.3,7.1,2.6,8.9
		c1.3-1.8,3.9-3.6,9-3.6c4.4,0,8.8,1.3,9,1.4c1.4,0.4,2.3,1.7,2.1,3.2c-0.1,1.4-1.3,2.6-2.7,2.7c0,0-6,0.6-8.8,4.7
		c-2,3-2.7,8.1-1.4,10.6c0.5,1,1.3,1.5,2.6,1.5c1.1,0,2.2,0,3.3,0.1c1.1,0,2.3,0.1,3.5,0.1c6.2,0,11.5-1,16.6-5.5
		c0.2,1.1,0.5,2.2,0.8,3.2c1,3.5,2.1,7,3,10.6C-499.2-73.6-499-72.6-498.7-71.6z"/>
	<path d="M-399.5-29v15.5c0,12.5-1.1,16.7-20.1,16.7c-18.9,0-22.3-0.9-29.7-0.7c-8.9,0.2-14.4-3.8-14.5-10c0-5.1-0.6-8.5-0.5-15.7
		c0.2-14.8-0.5-12.9-3.3-27.3c-2.2-11.1-3.2-16.6-3.2-21.6c0.1,0,0.2,0.1,0.4,0.1c0.5,0.2,1,0.4,1.6,0.6c5.8,2.1,14.6,5.2,17.2,15.1
		c0.7,2.5,1.4,4.8,2.1,6.9c2.6,8.2,3.8,12-1.8,18.7c-6.3,7.6-3,16.2-1.8,18.7c1.1,2.4,3,5.4,5.6,5.4c1,0,2-0.5,2.6-1.3
		c1.1-1.4,0.8-3,0.5-4.2c-0.5-2.1,0.1-4,0.8-4.9c0.4-0.5,0.8-0.8,1.2-0.8c0.5,0,1.1,0.5,1.8,1.3c5.4,7.1,19.7,8,21.3,8.1
		c0.1,0,0.1,0,0.2,0c1.3,0,2.5-0.9,2.9-2.1c0.4-1.3-0.1-2.7-1.3-3.4c-6.5-3.9-12.6-8.6-14.9-11.2c0.8,0,1.6-0.1,2.4-0.1
		c4.7,0,8.9,0.6,12,1.1c2,0.3,3.4,0.5,4.5,0.5c2.5,0,3.4-1.3,3.8-2.1c0.6-1.4,0.2-2.9-1.3-4.5c-2.8-2.9-7.1-3.2-11.8-3.6
		c-3.2-0.2-6.4-0.5-9.3-1.5c-2-0.7-3.2-3.3-3.9-6.2c2.6,1.4,6.3,2.5,11.3,3c1.5,0.1,2.9,0.2,4.1,0.2c5,0,7.6-1.4,7.7-4.3
		c0.2-4-5.9-6.5-10.2-6.9c-2.1-0.2-4.9-1.6-7.3-3.1c2.6-0.7,4.8-1.6,5.2-1.7c1.5-0.6,2.2-2.2,1.7-3.7c-0.4-1.3-1.6-2.1-2.8-2.1
		c-0.2,0-0.5,0-0.7,0.1c0,0-1.5,0.4-3.4,0.4c-1.9,0-4.5-0.4-5.9-2.2c-3.2-3.9-4.5-7.6-4.4-8.9c0.4-0.4,0.7-0.7,1-1.1
		c0.5-0.6,1.2-1.4,1.6-1.4c0.2,0,1.6,0.2,4.6,3.5c3.7,4.1,8.5,5,11.8,5c4.5,0,11.2-1.9,11.6-5.9c0.2-1.5-0.7-3.5-3.6-4.1
		c-0.5-0.1-1-0.2-1.7-0.3c-1.7-0.3-5.7-1-8.5-1.8c8.1-3.4,10.8-11,10-15.1c-0.5-2.7-2.4-3.6-3.8-3.6c-1.6,0-3,1-4.1,2.9
		c-0.7,1.1-1.6,2.2-2.5,3.1c0.3-0.8,0.7-1.8,1.2-3c5-11.2,2.8-19.7,0.9-22.6c-1.1-1.8-2.5-2.2-3.4-2.2c-1,0-1.9,0.4-2.5,1.2
		c-1.1,1.3-1,3-0.8,4.1c0.5,2.8-1.3,7.1-2.6,8.9c-1.3-1.8-3.9-3.6-9-3.6c-4.4,0-8.8,1.3-9,1.4c-1.4,0.4-2.3,1.7-2.1,3.2
		c0.1,1.4,1.3,2.6,2.7,2.7c0.1,0,6,0.7,8.9,4.7c2,3,2.7,8.1,1.4,10.6c-0.5,1-1.3,1.5-2.6,1.5c-0.9,0-1.9,0-2.8,0c-1,0-1.9,0-2.9,0
		c-5.9,0-12.2-0.5-18.6-7c-0.8-0.8-1.5-1.7-2.1-2.9v0c0.1-1.8,0.2-4,0.3-7.3c0.9-26.9,5.7-40.9,19.3-40.9c13.6,0,25.8,4.5,42.4,40.9
		C-399.7-85.8-399.5-51.4-399.5-29z"/>
	<path d="M-409.9-25.7c-0.3,0.8-1.3,2.1-3.8,2.1c-1.1,0-2.5-0.2-4.5-0.5c-3.1-0.5-7.3-1.1-12-1.1c-0.8,0-1.6,0-2.4,0.1
		c2.3,2.6,8.4,7.3,14.9,11.2c1.2,0.7,1.7,2.1,1.3,3.4c-0.4,1.3-1.6,2.1-2.9,2.1c0,0-0.1,0-0.2,0c-1.6-0.1-15.9-1-21.3-8.1
		c-0.6-0.8-1.3-1.3-1.8-1.3c-0.4,0-0.8,0.3-1.2,0.8c-0.7,0.9-1.4,2.7-0.8,4.9c0.3,1.2,0.6,2.8-0.5,4.2c-0.6,0.8-1.6,1.3-2.6,1.3
		c-2.6,0-4.5-2.9-5.6-5.4c-1.2-2.5-4.5-11.2,1.8-18.7c5.7-6.8,4.5-10.5,1.8-18.7c-0.7-2-1.4-4.3-2.1-6.9
		c-2.7-10-11.4-13.1-17.2-15.1c-0.6-0.2-1.1-0.4-1.6-0.6c-0.1,0-0.2-0.1-0.4-0.1c0-1.1,0-2.1,0.1-3.2c0.1-1.5,0.3-3,0.6-4.7
		c0.6-3.9,1-6,1.3-8c0.2-1.4,0.4-2.7,0.5-4.5c0.6,1.1,1.3,2.1,2.1,2.9c6.5,6.5,12.8,7,18.6,7c1,0,2,0,2.9,0c1,0,1.9,0,2.8,0
		c1.3,0,2.1-0.4,2.6-1.5c1.3-2.5,0.6-7.6-1.4-10.6c-2.8-4.1-8.8-4.7-8.9-4.7c-1.4-0.1-2.6-1.3-2.7-2.7c-0.1-1.4,0.8-2.8,2.1-3.2
		c0.2-0.1,4.6-1.4,9-1.4c5.1,0,7.7,1.8,9,3.6c1.4-1.8,3.1-6.2,2.6-8.9c-0.2-1.2-0.3-2.9,0.8-4.1c0.6-0.7,1.5-1.2,2.5-1.2
		c0.9,0,2.2,0.4,3.4,2.2c1.9,3,4.2,11.5-0.9,22.6c-0.5,1.2-1,2.2-1.2,3c0.9-0.9,1.8-2,2.5-3.1c1.1-1.9,2.5-2.9,4.1-2.9
		c1.5,0,3.3,0.9,3.8,3.6c0.8,4.1-1.8,11.8-10,15.1c2.8,0.8,6.8,1.5,8.5,1.8c0.6,0.1,1.2,0.2,1.7,0.3c2.9,0.5,3.7,2.5,3.6,4.1
		c-0.4,4-7.2,5.9-11.6,5.9c-3.3,0-8.1-0.9-11.8-5c-3-3.3-4.4-3.5-4.6-3.5c-0.4,0-1,0.8-1.6,1.4c-0.3,0.4-0.6,0.8-1,1.1
		c0,1.2,1.3,4.9,4.4,8.9c1.4,1.8,4,2.2,5.9,2.2c1.9,0,3.4-0.4,3.4-0.4c0.2-0.1,0.5-0.1,0.7-0.1c1.3,0,2.4,0.8,2.8,2.1
		c0.5,1.5-0.2,3.1-1.7,3.7c-0.4,0.1-2.6,1-5.2,1.7c2.4,1.5,5.2,2.9,7.3,3.1c4.4,0.4,10.5,2.9,10.2,6.9c-0.1,2.8-2.7,4.3-7.7,4.3
		c-1.2,0-2.6-0.1-4.1-0.2c-5-0.5-8.7-1.6-11.3-3c0.7,2.9,1.9,5.5,3.9,6.2c2.9,1,6.1,1.3,9.3,1.5c4.6,0.3,9,0.7,11.8,3.6
		C-409.7-28.7-409.3-27.2-409.9-25.7z"/>
</g>
<path d="M-411.2-30.2c-2.8-2.9-7.1-3.2-11.8-3.6c-3.2-0.2-6.4-0.5-9.3-1.5c-2-0.7-3.2-3.3-3.9-6.2c2.6,1.4,6.3,2.5,11.3,3
	c1.5,0.1,2.9,0.2,4.1,0.2c5,0,7.6-1.4,7.7-4.3c0.2-4-5.9-6.5-10.2-6.9c-2.1-0.2-4.9-1.6-7.3-3.1c2.6-0.7,4.8-1.6,5.2-1.7
	c1.5-0.6,2.2-2.2,1.7-3.7c-0.4-1.3-1.6-2.1-2.8-2.1c-0.2,0-0.5,0-0.7,0.1c0,0-1.5,0.4-3.4,0.4c-1.9,0-4.5-0.4-5.9-2.2
	c-3.2-3.9-4.5-7.6-4.4-8.9c0.4-0.4,0.7-0.7,1-1.1c0.5-0.6,1.2-1.4,1.6-1.4c0.2,0,1.6,0.2,4.6,3.5c3.7,4.1,8.5,5,11.8,5
	c4.5,0,11.2-1.9,11.6-5.9c0.2-1.5-0.7-3.5-3.6-4.1c-0.5-0.1-1-0.2-1.7-0.3c-1.7-0.3-5.7-1-8.5-1.8c8.1-3.4,10.8-11,10-15.1
	c-0.5-2.7-2.4-3.6-3.8-3.6c-1.6,0-3,1-4.1,2.9c-0.7,1.1-1.6,2.2-2.5,3.1c0.3-0.8,0.7-1.8,1.2-3c5-11.2,2.8-19.7,0.9-22.6
	c-1.1-1.8-2.5-2.2-3.4-2.2c-1,0-1.9,0.4-2.5,1.2c-1.1,1.3-1,3-0.8,4.1c0.5,2.8-1.3,7.1-2.6,8.9c-1.3-1.8-3.9-3.6-9-3.6
	c-4.4,0-8.8,1.3-9,1.4c-1.4,0.4-2.3,1.7-2.1,3.2c0.1,1.4,1.3,2.6,2.7,2.7c0.1,0,6,0.7,8.9,4.7c2,3,2.7,8.1,1.4,10.6
	c-0.5,1-1.3,1.5-2.6,1.5c-0.9,0-1.9,0-2.8,0c-1,0-1.9,0-2.9,0c-5.9,0-12.2-0.5-18.6-7c-0.8-0.8-1.5-1.7-2.1-2.9v0
	c-5.9-10.3-5.8-34.7-5.8-70v-5.1c0-1.7-1.3-3-3-3H-491c-1.7,0-3,1.3-3,3v5.1c0,39.1,0,64.9-8,72.8c-0.4,0.4-0.9,0.8-1.3,1.2
	c-5.2,4.5-10.4,5.5-16.6,5.5c-1.2,0-2.3,0-3.5-0.1c-1.1,0-2.3-0.1-3.3-0.1c-1.3,0-2.1-0.4-2.6-1.5c-1.3-2.5-0.6-7.6,1.4-10.6
	c2.8-4.1,8.8-4.7,8.8-4.7c1.4-0.1,2.6-1.3,2.7-2.7c0.1-1.4-0.8-2.8-2.1-3.2c-0.2-0.1-4.6-1.4-9-1.4c-5.1,0-7.7,1.8-9,3.6
	c-1.4-1.8-3.1-6.2-2.6-8.9c0.2-1.2,0.3-2.9-0.8-4.1c-0.6-0.7-1.5-1.2-2.5-1.2c-0.9,0-2.2,0.4-3.4,2.2c-1.9,3-4.2,11.5,0.9,22.6
	c0.5,1.2,0.9,2.2,1.2,3c-0.9-0.9-1.8-2-2.5-3.1c-1.1-1.9-2.5-2.9-4.1-2.9c-1.5,0-3.3,1-3.9,3.6c-0.8,4.1,1.9,11.8,10,15.1
	c-2.8,0.8-6.8,1.5-8.5,1.8c-0.6,0.1-1.2,0.2-1.7,0.3c-2.9,0.5-3.7,2.5-3.6,4.1c0.4,4,7.1,5.9,11.6,5.9c3.3,0,8.1-0.9,11.8-5
	c3-3.3,4.4-3.5,4.6-3.5c0.4,0,1.1,0.8,1.6,1.4c0.3,0.4,0.7,0.8,1,1.1c0,1.2-1.3,4.9-4.4,8.9c-1.5,1.8-4,2.2-5.9,2.2
	c-1.9,0-3.4-0.4-3.4-0.4c-0.2-0.1-0.5-0.1-0.8-0.1c-1.3,0-2.4,0.8-2.9,2c-0.5,1.5,0.2,3.1,1.7,3.7c0.4,0.1,2.6,1,5.2,1.7
	c-2.4,1.5-5.2,2.9-7.3,3.1c-4.4,0.4-10.5,2.9-10.2,6.9c0.1,2.8,2.7,4.3,7.7,4.3c1.2,0,2.6-0.1,4.1-0.2c5-0.5,8.7-1.6,11.3-3
	c-0.7,2.9-1.9,5.5-3.9,6.2c-2.9,1-6.1,1.3-9.3,1.5c-4.6,0.3-9,0.7-11.8,3.6c-1.5,1.5-1.9,3-1.3,4.5c0.3,0.8,1.3,2.1,3.8,2.1
	c1.1,0,2.5-0.2,4.5-0.5c3.1-0.5,7.3-1.1,12-1.1c0.8,0,1.6,0,2.4,0.1c-2.3,2.6-8.4,7.3-14.9,11.2c-1.2,0.7-1.7,2.1-1.3,3.4
	c0.4,1.3,1.6,2.1,2.9,2.1c0,0,0.1,0,0.1,0c1.6-0.1,16-1,21.3-8.1c0.6-0.8,1.3-1.3,1.8-1.3c0.3,0,0.8,0.3,1.2,0.8
	c0.7,0.9,1.4,2.7,0.8,4.9c-0.3,1.2-0.5,2.8,0.5,4.2c0.6,0.8,1.6,1.3,2.6,1.3c2.6,0,4.5-2.9,5.6-5.3c1.2-2.5,4.5-11.2-1.8-18.7
	c-5.7-6.8-4.5-10.5-1.8-18.7c0.6-2,1.4-4.3,2.1-6.9c2.6-9.7,11.3-12.7,17.1-14.7c0.3-0.1,0.7-0.2,1-0.3c0.4-0.1,0.7-0.3,1.1-0.4
	c4.5-1.7,10-4.1,13.7-6.8c3.6,2.7,8.9,5,13.3,6.7c0.1,0,0.2,0.1,0.4,0.1c0.5,0.2,1,0.4,1.6,0.6c5.8,2.1,14.6,5.2,17.2,15.1
	c0.7,2.5,1.4,4.8,2.1,6.9c2.6,8.2,3.8,12-1.8,18.7c-6.3,7.6-3,16.2-1.8,18.7c1.1,2.4,3,5.4,5.6,5.4c1,0,2-0.5,2.6-1.3
	c1.1-1.4,0.8-3,0.5-4.2c-0.5-2.1,0.1-4,0.8-4.9c0.4-0.5,0.8-0.8,1.2-0.8c0.5,0,1.1,0.5,1.8,1.3c5.4,7.1,19.7,8,21.3,8.1
	c0.1,0,0.1,0,0.2,0c1.3,0,2.5-0.9,2.9-2.1c0.4-1.3-0.1-2.7-1.3-3.4c-6.5-3.9-12.6-8.6-14.9-11.2c0.8,0,1.6-0.1,2.4-0.1
	c4.7,0,8.9,0.6,12,1.1c2,0.3,3.4,0.5,4.5,0.5c2.5,0,3.4-1.3,3.8-2.1C-409.3-27.2-409.7-28.7-411.2-30.2z"/>
<path d="M-491-167.5c0,44.5,0.4,70.8-8.8,80s-18.9,7.5-26.9,7.5c-8,0-7.4-11.4-3.7-16.7c3.7-5.4,11.1-6,11.1-6s-12.4-3.7-15.1,1.7
	c-2.7,5.4-8.7-5.7-7.7-11.7c1-6-6.9,3.7-0.1,18.8c6.8,15.1-3.2,8.4-6.6,2.7s-5,7.3,6,11.7s-5.7,6.7-11.1,7.7c-5.4,1,9.4,8.5,17.1,0
	s9.7-2.7,11.7-1c2,1.7-0.3,7.7-4.4,12.7c-4,5-12.4,2.8-12.4,2.8s7.7,3.2,11.1,2s-7.4,7.9-14.1,8.5c-6.7,0.7-13.4,6.4,1,5
	c14.4-1.3,15.4-8.4,15.4-8.4s0.7,14.7-6.7,17.4s-16.4,0.7-19.9,4.4s6.8-0.7,19.6,0c12.7,0.7-13.7,16.7-13.7,16.7s14.4-0.7,19.1-6.9
	c4.7-6.2,10.7,0.2,9,6.9s10-7.4,1.7-17.4c-8.4-10-3.7-15.7-0.3-28.3s15.6-15.4,21-17.4c5.4-2,12.1-5,14.7-8c2.7,3,9.4,6,14.7,8
	c5.4,2,17.3,5.2,20.6,17.7s8,18.3-0.3,28.3s3.3,24.1,1.7,17.4s4.4-13.1,9-6.9s19.1,6.9,19.1,6.9s-26.5-16.1-13.7-16.7
	c12.7-0.7,23.1,3.7,19.6,0c-3.5-3.7-12.5-1.7-19.9-4.4c-7.4-2.7-6.7-17.4-6.7-17.4s1,7,15.4,8.4c14.4,1.3,7.7-4.4,1-5
	c-6.7-0.7-17.4-9.7-14.1-8.5c3.3,1.2,11.1-2,11.1-2s-8.4,2.2-12.4-2.8c-4-5-6.4-11.1-4.4-12.7s4.1-7.5,11.7,1s22.4,1,17.1,0
	c-5.4-1-22.1-3.3-11.1-7.7c11.1-4.4,9.4-17.4,6-11.7s-13.4,12.4-6.6-2.7s-1.1-24.8-0.1-18.8c1,6-5,17.1-7.7,11.7
	c-2.7-5.4-15.1-1.7-15.1-1.7s7.4,0.7,11.1,6s4.4,16.7-3.7,16.7s-17.3,1.4-26.5-7.8s-8.8-35.5-8.8-80H-491z"/>
<g>
	<text transform="matrix(1 0 0 1 521.4565 138.5477)"><tspan x="0" y="0" class="st0 st1 st2">Weaning</tspan><tspan x="0" y="140.6" class="st1 st2">Labelling</tspan><tspan x="0" y="281.1" class="st1 st2">Study</tspan></text>
	<g>
		<g>
			<path class="st3" d="M207.8,286.3c0,29.8-8.9,28.2-8.9,54c0,25.8,0,21.2,0,61.5c0,40.3-19.3,24.7-53.2,24.7
				c-33.8,0-34.9-3.5-69.3,0.2c-26,2.8-26.4-21.8-26.4-91.5c0-62.5,2.2-106.9,19.9-136.7c42.1-70.6,69.3-81.4,86.2-81.4
				c16.9,0,37.1,16.9,37.1,48.4c0,31.4,0,16.9,0,43.5c0,6.7,0.9,13.1,2.3,19.4c-11,9.7-22.2,11.8-35.4,11.8c-2.5,0-5-0.1-7.4-0.1
				c-2.4-0.1-4.8-0.1-7.1-0.1c-2.8,0-4.5-0.9-5.6-3.1c-2.8-5.3-1.3-16.2,3-22.5c6-8.7,18.7-10.1,18.8-10.1c3-0.3,5.5-2.7,5.8-5.7
				c0.3-3-1.6-5.9-4.5-6.7c-0.4-0.1-9.8-2.9-19.2-2.9c-10.9,0-16.4,3.8-19.2,7.7c-2.9-3.9-6.6-13.1-5.6-19c0.4-2.5,0.7-6.1-1.6-8.8
				c-1.3-1.6-3.3-2.5-5.3-2.5c-2,0-4.8,0.8-7.2,4.6c-4.1,6.3-8.9,24.5,1.8,48.2c1.2,2.6,2,4.7,2.6,6.5c-1.9-1.9-3.9-4.2-5.3-6.6
				c-2.4-4.1-5.4-6.2-8.8-6.2c-3.1,0-7.1,2-8.2,7.7c-1.7,8.8,3.9,25.1,21.2,32.3c-5.9,1.7-14.5,3.2-18.1,3.9
				c-1.3,0.2-2.6,0.4-3.6,0.6c-6.1,1.1-7.9,5.4-7.6,8.7c0.8,8.5,15.2,12.5,24.7,12.5c7.1,0,17.2-1.8,25.1-10.6
				c6.4-7.1,9.3-7.5,9.8-7.5c0.9,0,2.3,1.6,3.4,2.9c0.7,0.8,1.4,1.6,2.2,2.4c0.1,2.7-2.7,10.5-9.4,18.8c-3.1,3.9-8.6,4.7-12.6,4.7
				c-4,0-7.2-0.8-7.2-0.8c-0.5-0.1-1.1-0.2-1.6-0.2c-2.7,0-5.2,1.7-6.1,4.3c-1.1,3.2,0.5,6.7,3.6,7.9c0.8,0.3,5.5,2.2,11,3.6
				c-5.2,3.2-11.1,6.1-15.6,6.6c-9.3,0.9-22.2,6.1-21.8,14.8c0.3,6,5.8,9.1,16.4,9.1c2.6,0,5.5-0.1,8.8-0.5
				c10.7-1,18.5-3.4,24.1-6.3c-1.5,6.2-4.1,11.7-8.3,13.2c-6.1,2.2-13,2.7-19.8,3.3c-9.8,0.7-19.1,1.4-25,7.6
				c-3.1,3.2-4,6.4-2.7,9.5c0.7,1.7,2.7,4.5,8,4.5c2.3,0,5.3-0.4,9.5-1c6.6-1,15.6-2.3,25.6-2.3c1.7,0,3.4,0,5,0.1
				c-4.8,5.5-17.9,15.5-31.7,23.8c-2.5,1.5-3.6,4.5-2.8,7.3c0.8,2.7,3.3,4.5,6.1,4.5c0.1,0,0.2,0,0.3,0c3.4-0.2,34-2,45.4-17.2
				c1.3-1.8,2.7-2.8,3.7-2.8c0.7,0,1.7,0.6,2.5,1.7c1.5,1.9,2.9,5.8,1.8,10.4c-0.6,2.4-1.2,6,1.1,8.9c1.3,1.7,3.4,2.7,5.6,2.7
				c5.5,0,9.5-6.2,11.9-11.4c2.5-5.3,9.5-23.8-3.9-39.9c-12.1-14.5-9.5-22.4-3.9-39.9c1.4-4.3,3-9.2,4.4-14.6
				c5.5-20.6,24.1-27,36.4-31.2c0.7-0.3,1.4-0.5,2-0.7C206.7,270.9,207.8,278.3,207.8,286.3z"/>
			<path class="st3" d="M416.6,354.6v33c0,26.6-2.4,35.5-42.7,35.5c-40.3,0-47.5-1.9-63.2-1.5c-18.9,0.4-30.7-8.1-30.8-21.2
				c-0.1-10.8-1.3-18.1-1.1-33.5c0.5-31.5-1-27.6-7-58.1c-4.7-23.7-6.8-35.3-6.8-46c0.3,0.1,0.5,0.2,0.8,0.3c1,0.4,2.2,0.8,3.4,1.2
				c12.3,4.4,31,11,36.6,32.2c1.4,5.4,3,10.3,4.4,14.6c5.6,17.5,8.2,25.4-3.9,39.9c-13.4,16.1-6.4,34.6-3.9,39.9
				c2.4,5.2,6.5,11.4,11.9,11.4c2.2,0,4.2-1,5.6-2.7c2.3-2.9,1.7-6.5,1.1-8.9c-1.1-4.6,0.2-8.5,1.8-10.4c0.8-1,1.7-1.7,2.5-1.7
				c1,0,2.4,1,3.7,2.8c11.5,15.1,42,17,45.4,17.2c0.1,0,0.2,0,0.3,0c2.8,0,5.3-1.8,6.1-4.5c0.9-2.8-0.3-5.8-2.8-7.3
				c-13.8-8.3-26.9-18.3-31.7-23.8c1.7-0.1,3.4-0.1,5.1-0.1c10,0,19,1.3,25.6,2.3c4.2,0.6,7.2,1,9.5,1c5.3,0,7.3-2.8,8-4.5
				c1.3-3.1,0.4-6.3-2.7-9.5c-5.9-6.1-15.2-6.8-25-7.6c-6.7-0.5-13.7-1-19.8-3.3c-4.2-1.5-6.8-7-8.3-13.2c5.6,2.9,13.4,5.3,24.1,6.3
				c3.3,0.3,6.2,0.4,8.8,0.4c10.6,0,16.1-3.1,16.4-9.1c0.4-8.6-12.5-13.8-21.8-14.8c-4.5-0.4-10.4-3.4-15.6-6.6
				c5.5-1.4,10.2-3.3,11-3.6c3.1-1.3,4.7-4.7,3.6-7.9c-0.9-2.7-3.4-4.4-6.1-4.4c-0.5,0-1,0.1-1.6,0.2c0,0-3.2,0.8-7.2,0.8
				c-4,0-9.5-0.8-12.6-4.7c-6.7-8.4-9.5-16.2-9.5-18.8c0.8-0.8,1.5-1.6,2.2-2.4c1.1-1.3,2.5-2.9,3.4-2.9c0.5,0,3.4,0.4,9.9,7.5
				c7.9,8.8,18.1,10.6,25.1,10.6c9.5,0,24-4,24.7-12.5c0.3-3.3-1.5-7.5-7.6-8.7c-1-0.2-2.2-0.4-3.6-0.6c-3.6-0.6-12.2-2.2-18.1-3.9
				c17.3-7.2,22.9-23.4,21.2-32.3c-1.1-5.7-5.1-7.7-8.2-7.7c-3.4,0-6.4,2.1-8.8,6.2c-1.4,2.4-3.4,4.7-5.3,6.6
				c0.6-1.7,1.5-3.9,2.6-6.5c10.7-23.7,5.9-41.9,1.8-48.2c-2.4-3.8-5.3-4.6-7.2-4.6c-2,0-4,0.9-5.3,2.5c-2.3,2.7-2,6.3-1.6,8.8
				c1,5.9-2.7,15.1-5.6,19c-2.8-3.9-8.3-7.7-19.2-7.7c-9.4,0-18.8,2.8-19.2,2.9c-2.9,0.9-4.8,3.7-4.5,6.7c0.3,3,2.7,5.5,5.8,5.7
				c0.1,0,12.9,1.4,18.8,10.1c4.3,6.3,5.8,17.3,3,22.5c-1.1,2.2-2.8,3.1-5.6,3.1c-2,0-4,0-6.1,0.1c-2,0-4.1,0.1-6.2,0.1
				c-12.5,0-25.9-1.1-39.7-14.9c-1.7-1.7-3.2-3.7-4.5-6.1v0c0.3-3.8,0.5-8.5,0.7-15.5c2-57.2,12.1-87,41.1-87c29,0,55,9.6,90.3,87
				C416.1,233.9,416.6,307.1,416.6,354.6z"/>
		</g>
		<path class="st4" d="M221.6,59.8c0,94.8,0.8,150.8-18.8,170.4s-40.2,16-57.3,16s-15.7-24.2-7.8-35.6s23.5-12.8,23.5-12.8
			s-26.4-7.8-32.1,3.6c-5.7,11.4-18.5-12.1-16.4-25c2.1-12.8-14.7,7.8-0.2,39.9s-6.9,17.8-14,5.7c-7.1-12.1-10.7,15.6,12.8,24.9
			s-12.1,14.3-23.5,16.4s20.1,18,36.4,0c16.3-18,20.7-5.7,25-2.1c4.3,3.6-0.7,16.4-9.3,27.1c-8.6,10.7-26.4,6.1-26.4,6.1
			s16.4,6.8,23.5,4.3s-15.7,16.8-29.9,18.2s-28.5,13.5,2.1,10.7s32.8-17.8,32.8-17.8s1.4,31.4-14.3,37.1
			c-15.7,5.7-34.8,1.4-42.4,9.3c-7.5,7.8,14.6-1.4,41.6,0s-29.2,35.6-29.2,35.6s30.7-1.5,40.6-14.6c10-13.2,22.8,0.4,19.2,14.6
			c-3.6,14.3,21.4-15.7,3.6-37.1c-17.8-21.4-7.8-33.5-0.7-60.2s33.3-32.8,44.7-37.1c11.4-4.3,25.7-10.7,31.4-17.1
			c5.7,6.4,20,12.8,31.4,17.1c11.4,4.3,36.8,11,43.9,37.8c7.1,26.7,17.1,38.9-0.7,60.2c-17.8,21.4,7.1,51.3,3.6,37.1
			s9.3-27.8,19.2-14.6s40.6,14.6,40.6,14.6s-56.3-34.2-29.2-35.6c27.1-1.4,49.2,7.8,41.6,0c-7.5-7.8-26.7-3.6-42.4-9.3
			c-15.7-5.7-14.3-37.1-14.3-37.1s2.1,15,32.8,17.8c30.7,2.9,16.4-9.3,2.1-10.7s-37.1-20.7-29.9-18.2c7.1,2.5,23.5-4.3,23.5-4.3
			s-17.8,4.6-26.4-6.1c-8.6-10.7-13.5-23.5-9.3-27.1c4.3-3.6,8.7-15.9,25,2.1c16.3,18,47.8,2.1,36.4,0c-11.4-2.1-47.1-7.1-23.5-16.4
			s20-37,12.8-24.9c-7.1,12.1-28.5,26.4-14-5.7c14.5-32.1-2.4-52.8-0.2-39.9s-10.7,36.4-16.4,25c-5.7-11.4-32.1-3.6-32.1-3.6
			s15.7,1.4,23.5,12.8c7.8,11.4,9.3,35.6-7.8,35.6c-17.1,0-36.9,3-56.5-16.6s-18.8-75.5-18.8-170.4H221.6z"/>
	</g>
</g>
</svg>
