<?xml version="1.0" standalone="no"?>
<!DOCTYPE svg PUBLIC "-//W3C//DTD SVG 20010904//EN"
 "http://www.w3.org/TR/2001/REC-SVG-20010904/DTD/svg10.dtd">
<svg version="1.0" xmlns="http://www.w3.org/2000/svg"
 width="700.000000pt" height="700.000000pt" viewBox="0 0 700.000000 700.000000"
 preserveAspectRatio="xMidYMid meet">
<metadata>
Created by potrace 1.14, written by Peter Selinger 2001-2017
</metadata>
<g transform="translate(0.000000,700.000000) scale(0.100000,-0.100000)"
fill="#000000" stroke="none">
<path d="M3289 6908 c-1 -2 -3 -246 -4 -543 -2 -475 -12 -1094 -20 -1225 -1
-25 -6 -103 -9 -175 -4 -71 -9 -146 -11 -165 -2 -19 -6 -64 -10 -100 -37 -412
-126 -721 -252 -877 -65 -81 -114 -125 -217 -193 -128 -86 -268 -135 -442
-155 -79 -10 -477 -6 -514 5 -184 53 -234 338 -102 593 69 133 205 232 382
276 72 18 73 19 40 27 -104 24 -154 29 -280 29 -116 0 -129 -2 -181 -28 -40
-19 -65 -40 -84 -70 -45 -68 -75 -78 -126 -44 -102 70 -192 301 -184 473 2 51
0 86 -6 90 -22 13 -72 -69 -80 -131 -1 -5 -6 -21 -11 -35 -13 -35 -18 -202 -7
-285 16 -124 50 -237 114 -381 32 -70 74 -206 76 -246 3 -48 -9 -77 -35 -84
-60 -15 -198 93 -291 225 -28 39 -57 73 -66 76 -29 10 -49 -6 -50 -39 -1 -17
-2 -38 -3 -46 -3 -31 27 -127 55 -180 55 -103 141 -179 265 -235 116 -53 154
-82 154 -116 0 -22 -9 -34 -38 -53 -42 -27 -161 -69 -217 -77 -2 0 -31 -7 -64
-15 -62 -14 -75 -17 -199 -38 -41 -8 -81 -21 -90 -29 -14 -15 -14 -18 4 -38
67 -74 293 -119 442 -88 101 21 174 63 269 156 116 112 180 155 241 161 32 3
59 -1 78 -11 35 -18 133 -116 151 -152 36 -68 -39 -271 -159 -429 -72 -95
-139 -139 -248 -163 -33 -7 -157 -9 -198 -3 -75 12 -17 -14 102 -45 111 -29
200 -38 246 -25 48 14 44 -5 -15 -59 -141 -128 -388 -258 -525 -275 -153 -19
-296 -93 -288 -149 5 -36 51 -50 168 -51 102 -1 229 8 280 19 36 7 94 19 100
20 3 0 42 13 86 29 112 39 208 106 260 182 l41 61 -2 -66 c-10 -283 -87 -491
-207 -567 -49 -31 -184 -71 -267 -79 -31 -3 -67 -7 -81 -9 -14 -3 -65 -7 -115
-11 -191 -14 -293 -38 -351 -84 -34 -26 -58 -60 -50 -68 11 -12 162 -3 231 12
11 3 38 7 60 10 337 39 552 39 612 0 30 -20 30 -67 2 -115 -50 -85 -278 -274
-519 -431 -60 -40 -107 -75 -105 -79 3 -4 24 -4 47 0 24 5 68 11 98 14 75 8
251 53 330 84 119 47 177 87 253 171 59 65 103 91 155 91 116 0 207 -127 204
-285 -1 -33 -6 -73 -10 -90 -18 -63 10 -73 56 -21 98 112 153 340 118 490 -23
97 -43 137 -123 246 -122 165 -163 262 -165 392 -3 127 7 175 110 505 28 89
56 181 62 205 36 132 115 262 218 359 118 112 245 183 467 264 354 128 573
235 677 329 l38 34 37 -35 c88 -81 313 -194 593 -297 325 -120 492 -226 613
-386 81 -108 104 -159 171 -383 31 -102 67 -220 81 -264 106 -320 80 -505
-105 -738 -54 -68 -103 -159 -120 -224 -15 -56 -15 -191 0 -256 26 -113 93
-245 142 -279 32 -23 41 -1 27 65 -30 137 36 303 136 344 78 33 127 13 236
-98 66 -66 100 -92 159 -119 124 -59 293 -105 445 -123 28 -3 68 -8 90 -11 36
-5 27 3 -105 92 -352 235 -541 412 -528 496 2 11 16 30 31 42 27 20 41 21 225
21 176 0 285 -6 362 -20 14 -3 43 -7 65 -10 22 -3 82 -10 133 -17 68 -8 96 -8
104 0 16 16 -13 56 -65 86 -65 38 -146 54 -362 71 -181 14 -311 39 -391 75
-136 60 -224 253 -240 530 -3 52 -7 103 -9 113 -5 27 3 20 24 -22 55 -107 189
-193 376 -239 103 -26 142 -31 300 -38 141 -6 219 7 239 38 28 46 -100 126
-244 153 -171 31 -279 76 -435 180 -79 53 -185 141 -185 154 0 4 42 7 93 7 69
0 117 7 190 27 54 15 105 30 112 35 8 4 -34 7 -93 7 -186 1 -277 44 -373 179
-98 137 -159 277 -159 363 0 41 5 58 28 85 63 76 87 99 127 118 87 42 166 8
312 -137 131 -129 222 -170 385 -175 158 -4 348 63 348 123 0 22 -6 26 -50 33
-114 18 -347 69 -416 90 -135 43 -181 89 -137 138 10 12 68 45 128 74 176 85
278 193 320 338 19 66 16 153 -6 167 -26 16 -43 4 -88 -61 -57 -83 -166 -189
-224 -218 -79 -39 -110 -27 -113 45 -2 50 39 189 85 288 37 81 70 183 91 285
27 130 23 316 -10 411 -22 65 -62 130 -74 118 -4 -3 -8 -62 -10 -130 -2 -82
-9 -141 -20 -174 -31 -89 -85 -191 -125 -233 -66 -70 -114 -67 -161 10 -25 39
-86 83 -132 94 -51 13 -218 12 -303 -2 -147 -24 -152 -28 -66 -49 287 -70 446
-276 446 -575 -1 -124 -23 -188 -86 -244 -55 -51 -96 -58 -328 -58 -204 0
-304 9 -411 37 -203 53 -402 185 -521 345 -51 69 -128 246 -154 356 -17 69
-37 164 -41 194 -3 19 -9 61 -15 92 -9 55 -12 73 -24 203 -3 33 -8 76 -10 95
-24 199 -38 757 -39 1512 l-1 618 -272 0 c-150 0 -274 -1 -274 -2z"/>
<path d="M2002 5848 c-327 -35 -687 -312 -1064 -818 -39 -52 -83 -111 -98
-130 -44 -57 -252 -376 -323 -496 -80 -133 -134 -245 -181 -376 -35 -97 -99
-337 -110 -414 -4 -22 -9 -51 -11 -64 -6 -30 -31 -204 -39 -275 -13 -110 -15
-133 -22 -220 -3 -49 -8 -108 -10 -130 -27 -309 -27 -1951 0 -2185 3 -19 7
-59 10 -89 30 -264 109 -426 236 -484 62 -28 216 -29 460 -1 50 5 434 5 500
-1 63 -5 260 -12 535 -20 105 -3 201 -7 215 -9 14 -2 59 -7 100 -11 41 -3 84
-8 95 -10 107 -22 305 -26 365 -9 109 33 162 114 196 304 4 19 8 355 9 745 1
391 5 730 9 755 4 25 10 59 12 75 7 45 22 99 59 215 36 112 60 201 70 265 13
85 13 390 0 480 -13 91 -34 195 -39 195 -14 0 -234 -88 -293 -116 -76 -37
-211 -132 -248 -176 -90 -103 -130 -180 -175 -333 -17 -60 -49 -166 -71 -235
-90 -282 -103 -391 -64 -504 27 -77 50 -116 126 -216 122 -160 155 -257 153
-440 -2 -113 -29 -221 -82 -330 -46 -94 -124 -176 -177 -186 -53 -10 -109 10
-137 49 -24 33 -24 39 -17 213 2 59 -1 77 -22 114 -13 24 -35 47 -48 52 -22 8
-31 1 -85 -56 -34 -35 -83 -80 -109 -100 -130 -97 -415 -185 -655 -201 -135
-10 -172 9 -185 94 -9 58 7 86 78 132 216 139 339 227 440 313 79 68 115 105
107 109 -10 6 -236 0 -302 -7 -97 -11 -143 -17 -250 -32 -197 -28 -277 -17
-313 44 -69 119 71 278 271 308 21 3 44 7 52 9 8 3 49 7 90 10 76 6 313 33
340 38 74 15 127 36 159 63 36 31 81 114 97 178 6 26 5 28 -12 21 -62 -26
-190 -67 -236 -75 -29 -6 -62 -12 -74 -14 -52 -10 -129 -17 -226 -21 -238 -8
-355 53 -350 182 5 119 149 213 394 258 87 15 165 45 246 93 l45 25 -99 34
c-55 19 -106 37 -114 39 -24 8 -60 67 -60 100 0 65 73 130 131 119 137 -28
248 -19 329 27 65 36 180 213 214 327 l16 54 -29 36 c-48 60 -67 74 -93 66
-29 -9 -83 -54 -179 -148 -89 -86 -180 -137 -291 -162 -115 -25 -191 -25 -326
-1 -41 8 -139 44 -172 64 -121 75 -150 193 -63 268 31 26 50 32 287 78 172 34
205 44 179 53 -26 9 -133 80 -166 109 -130 117 -209 282 -206 433 1 92 48 162
121 182 33 9 49 8 84 -6 46 -17 69 -41 148 -149 26 -37 50 -65 53 -63 2 3 -14
48 -36 100 -23 53 -41 102 -41 109 0 8 -4 18 -9 24 -9 10 -51 161 -57 208 -2
17 -6 42 -9 56 -12 58 -4 247 14 327 18 81 56 169 90 207 20 23 94 58 113 52
7 -2 25 -7 40 -10 15 -3 39 -22 54 -42 27 -34 28 -41 30 -162 2 -135 13 -181
68 -290 l27 -53 39 35 c86 78 185 106 353 101 61 -2 126 -6 142 -10 17 -3 60
-12 97 -20 93 -19 134 -40 152 -80 19 -39 20 -52 5 -93 -14 -41 -56 -65 -149
-87 -209 -49 -325 -159 -364 -347 -17 -79 -13 -182 7 -230 29 -68 38 -70 299
-71 128 0 249 2 268 6 114 21 146 29 217 57 72 27 149 73 217 127 27 21 27 23
16 82 -5 34 -13 73 -16 88 -4 16 -8 179 -10 363 -7 597 -11 815 -16 835 -3 11
-8 38 -12 60 -27 156 -124 343 -236 455 -147 146 -312 209 -498 188z"/>
<path d="M4888 5855 c-1 -1 -20 -5 -40 -8 -173 -23 -335 -154 -429 -347 -68
-139 -128 -342 -154 -525 -17 -121 -25 -180 -30 -235 -3 -36 -8 -81 -10 -100
-8 -73 -19 -265 -31 -541 l-5 -136 30 -46 c37 -55 123 -134 204 -189 97 -66
182 -100 332 -134 59 -13 482 -14 521 -1 52 17 77 68 80 162 5 136 -42 270
-124 350 -45 45 -161 110 -212 119 -98 17 -136 31 -162 56 -15 16 -29 38 -29
49 -4 66 -1 77 25 106 27 29 81 46 216 70 234 40 407 12 509 -84 40 -38 48
-33 84 47 43 96 60 176 54 261 -7 92 7 144 46 177 57 48 123 44 181 -12 53
-51 100 -172 113 -286 23 -209 -16 -415 -125 -673 -16 -38 -28 -72 -26 -74 5
-6 40 36 79 95 39 60 95 111 130 120 76 19 147 -21 180 -100 19 -46 18 -158
-2 -226 -44 -145 -173 -302 -305 -370 l-67 -35 42 -12 c37 -11 148 -36 225
-49 136 -25 180 -36 201 -52 86 -64 89 -168 7 -238 -93 -80 -242 -123 -409
-119 -110 3 -119 4 -214 36 -83 27 -149 73 -267 186 -94 90 -138 115 -169 96
-7 -4 -30 -26 -50 -49 l-37 -41 16 -54 c34 -116 150 -294 217 -333 74 -42 140
-49 295 -31 77 9 114 -4 143 -52 17 -26 20 -44 16 -76 -8 -61 -46 -90 -168
-128 l-101 -31 31 -19 c88 -53 183 -92 256 -103 22 -4 54 -9 70 -11 64 -11
179 -59 234 -100 80 -59 107 -119 88 -195 -17 -68 -69 -104 -175 -123 -178
-33 -520 14 -684 93 -21 10 -38 15 -38 11 0 -4 9 -33 19 -64 25 -71 73 -143
109 -161 33 -17 130 -43 192 -51 25 -3 61 -7 80 -10 19 -2 71 -7 115 -10 193
-14 280 -32 363 -73 122 -61 180 -157 146 -243 -22 -53 -81 -82 -170 -80 -36
0 -69 3 -72 5 -4 2 -32 7 -62 10 -30 3 -66 8 -80 11 -14 3 -50 7 -80 10 -30 3
-67 8 -81 11 -14 3 -97 7 -183 9 -177 4 -171 9 -89 -68 79 -73 208 -169 379
-283 95 -62 175 -121 179 -131 26 -66 5 -131 -52 -158 -28 -13 -51 -16 -112
-11 -43 4 -86 8 -97 10 -10 2 -39 7 -64 11 -86 13 -237 54 -316 84 -117 45
-197 97 -284 183 -43 43 -83 78 -88 78 -22 0 -63 -46 -76 -85 -14 -40 -14 -93
-1 -176 13 -81 -31 -158 -102 -175 -103 -26 -231 121 -293 337 -24 83 -34 239
-20 309 5 25 12 56 14 69 11 49 65 149 123 226 191 252 200 344 72 741 -22 71
-54 174 -70 229 -35 121 -59 180 -103 248 -104 162 -281 279 -575 381 -82 28
-90 26 -85 -27 1 -18 5 -63 8 -102 3 -38 7 -79 10 -90 2 -11 7 -47 12 -80 4
-33 8 -62 9 -65 0 -3 4 -27 9 -53 4 -27 9 -56 11 -65 2 -10 13 -66 25 -127 11
-60 28 -144 36 -185 9 -41 17 -86 20 -100 2 -14 18 -86 34 -160 25 -117 40
-191 65 -325 6 -32 11 -201 20 -655 10 -516 17 -575 69 -658 64 -102 206 -178
366 -197 36 -4 139 -9 230 -10 91 -1 246 -6 345 -11 224 -11 954 -12 1055 -1
321 34 446 151 465 438 6 85 6 1195 0 1529 -4 227 -12 492 -20 630 -8 129 -16
253 -20 305 -3 28 -7 79 -10 115 -6 78 -15 166 -21 201 -2 14 -6 52 -9 84 -4
33 -8 61 -10 64 -2 3 -6 31 -10 61 -17 147 -74 391 -122 523 -25 70 -203 440
-282 585 -76 140 -186 317 -264 427 -285 398 -548 593 -881 651 -73 12 -329
27 -338 19z"/>
</g>
</svg>
